<?xml version="1.0" encoding="utf-8"?>
<!-- Generator: Adobe Illustrator 29.1.0, SVG Export Plug-In . SVG Version: 9.03 Build 55587)  -->
<svg version="1.1" xmlns="http://www.w3.org/2000/svg" xmlns:xlink="http://www.w3.org/1999/xlink" x="0px" y="0px"
	 viewBox="0 0 595.3 841.9" style="enable-background:new 0 0 595.3 841.9;" xml:space="preserve">
<style type="text/css">
	.st0{fill:#A884BC;}
	.st1{fill:none;stroke:#000000;stroke-miterlimit:10;}
	.st2{stroke:#000000;stroke-miterlimit:10;}
</style>
<g id="snowflake">
	<g>
		<polygon class="st0" points="54.7,49 54.4,48.9 52.6,55.6 90.4,65.7 105.3,91.7 111.3,88.2 96.3,62.3 106.4,24.8 106.5,24.5 
			99.8,22.7 91.5,53.8 82.2,37.8 88.5,14.4 81.8,12.6 77.3,29.4 65.5,8.9 59.6,12.4 71.4,32.8 54.6,28.3 52.8,35 76.2,41.3 
			85.5,57.3 		"/>
		<polygon class="st0" points="102.2,104.1 102.2,97.2 72.2,97.2 44.6,69.5 39.7,74.4 62.5,97.2 44,97.2 26.8,80 21.9,84.9 
			34.2,97.2 10.6,97.2 10.6,104.1 34.2,104.1 21.9,116.4 26.8,121.2 44,104.1 62.5,104.1 39.7,126.8 44.6,131.7 72.2,104.1 		"/>
		<polygon class="st0" points="111.2,113.3 111.3,113 105.3,109.6 90.4,135.5 52.6,145.6 54.4,152.3 85.5,144 76.2,160 52.8,166.2 
			54.6,172.9 71.4,168.4 59.7,188.6 59.6,188.8 65.5,192.3 77.3,171.9 81.8,188.6 88.5,186.9 82.2,163.4 91.5,147.4 99.8,178.5 
			106.5,176.7 96.3,138.9 		"/>
		<polygon class="st0" points="174.3,152.2 174.6,152.3 176.4,145.6 138.6,135.5 123.8,109.8 123.6,109.6 117.7,113 132.6,138.9 
			122.5,176.7 129.2,178.5 137.5,147.4 146.8,163.4 140.5,186.9 147.1,188.6 151.6,171.9 163.3,192 163.4,192.3 169.4,188.8 
			157.6,168.4 174.1,172.8 174.4,172.9 176.2,166.2 152.7,160 143.5,144 		"/>
		<polygon class="st0" points="218.4,97.2 194.8,97.2 207,84.9 202.2,80 185,97.2 166.5,97.2 189.3,74.4 184.4,69.5 156.8,97.2 
			126.8,97.2 126.8,104.1 156.8,104.1 184.4,131.7 189.3,126.8 166.5,104.1 185,104.1 202.2,121.2 207,116.4 194.8,104.1 
			218.4,104.1 		"/>
		<polygon class="st0" points="117.7,88.2 123.6,91.7 138.6,65.7 176.1,55.7 176.4,55.6 174.6,48.9 143.5,57.3 152.7,41.3 176.2,35 
			174.4,28.3 157.6,32.8 169.4,12.4 163.4,8.9 151.6,29.4 147.1,12.6 140.5,14.4 146.8,37.8 137.5,53.8 129.3,23 129.2,22.7 
			122.5,24.5 132.6,62.3 		"/>
		<path class="st0" d="M114.5,90c-1.9,0-3.7,0.5-5.3,1.4c-2.5,1.4-4.2,3.7-4.9,6.4c-0.7,2.7-0.4,5.6,1.1,8.1
			c1.9,3.3,5.4,5.3,9.2,5.3c1.9,0,3.7-0.5,5.3-1.4c2.5-1.4,4.2-3.7,5-6.4c0.7-2.7,0.4-5.6-1.1-8.1C121.8,92,118.3,90,114.5,90z
			 M110.9,99.7c0.3-1,0.9-1.8,1.7-2.3c0.6-0.3,1.2-0.5,1.9-0.5c1.3,0,2.6,0.7,3.2,1.9c0.5,0.9,0.6,1.9,0.4,2.8
			c-0.3,1-0.9,1.8-1.7,2.3c-0.6,0.3-1.2,0.5-1.9,0.5c-1.3,0-2.6-0.7-3.2-1.9C110.8,101.6,110.6,100.6,110.9,99.7z"/>
		<path class="st0" d="M114.5,87.1l14.8-24.6l-14.8-24.6L99.7,62.5L114.5,87.1z M114.5,73.7l-6.7-11.2l6.7-11.2l6.7,11.2L114.5,73.7
			z"/>
		<path class="st0" d="M74.1,94.4l28.7-0.5L88.9,68.8l-28.7,0.5L74.1,94.4z M78.1,87.4L71.8,76l13.1-0.2l6.3,11.4L78.1,87.4z"/>
		<path class="st0" d="M74.1,106.9L60.1,132l28.5,0.5l0.2,0l13.9-25.1l-28.5-0.5L74.1,106.9z M71.8,125.3l6.3-11.4l13.1,0.2
			l-6.3,11.4L71.8,125.3z"/>
		<path class="st0" d="M114.5,114.1l-14.8,24.6l14.8,24.6l14.8-24.6L114.5,114.1z M114.5,127.5l6.7,11.2l-6.7,11.2l-6.7-11.2
			L114.5,127.5z"/>
		<path class="st0" d="M140.1,132.5l28.7-0.5L155,107l-0.1-0.2l-28.7,0.5l13.9,25L140.1,132.5z M150.9,113.9l6.3,11.4l-13.1,0.2
			l-6.3-11.4L150.9,113.9z"/>
		<path class="st0" d="M154.9,94.4l13.9-25.1l-28.7-0.5l-13.9,25.1L154.9,94.4z M157.2,76l-6.3,11.4l-13.1-0.2l6.3-11.4L157.2,76z"
			/>
	</g>
</g>
<g id="outline">
	<path class="st1" d="M223.8,105.2l-40,35.4L173.1,193c-3.2,1.9-4.8,2.8-8,4.6l-50.7-16.9l-50.7,16.9c-3.2-1.9-4.8-2.8-8-4.6
		l-10.7-52.3l-40-35.4c0-3.7,0-5.5,0-9.2l40-35.4L55.8,8.3c3.2-1.9,4.8-2.8,8-4.6l50.7,16.9l50.7-16.9c3.2,1.9,4.8,2.8,8,4.6
		l10.7,52.3l40,35.4C223.8,99.7,223.8,101.5,223.8,105.2z"/>
</g>
<g id="leds">
	<rect x="143.2" y="117.5" transform="matrix(-0.866 -0.5 0.5 -0.866 215.4043 297.0748)" class="st2" width="8.6" height="4.3"/>
	<rect x="77.2" y="117.2" transform="matrix(-0.866 0.5 -0.5 -0.866 211.7376 182.0762)" class="st2" width="8.6" height="4.3"/>
	
		<rect x="110.2" y="60.3" transform="matrix(-1.836970e-16 1 -1 -1.836970e-16 176.9863 -51.9916)" class="st2" width="8.6" height="4.3"/>
	
		<rect x="110.2" y="136.6" transform="matrix(-1.836970e-16 1 -1 -1.836970e-16 253.2288 24.251)" class="st2" width="8.6" height="4.3"/>
	<rect x="142.7" y="79.4" transform="matrix(-0.866 0.5 -0.5 -0.866 315.1392 78.6747)" class="st2" width="8.6" height="4.3"/>
	<rect x="77.6" y="79.4" transform="matrix(-0.866 -0.5 0.5 -0.866 112.1393 193.1636)" class="st2" width="8.6" height="4.3"/>
	<g>
	</g>
	<g>
	</g>
	<g>
	</g>
	<g>
	</g>
	<g>
	</g>
	<g>
	</g>
</g>
</svg>
