<?xml version="1.0" encoding="UTF-8" standalone="no"?>
<svg
   xmlns:dc="http://purl.org/dc/elements/1.1/"
   xmlns:cc="http://creativecommons.org/ns#"
   xmlns:rdf="http://www.w3.org/1999/02/22-rdf-syntax-ns#"
   xmlns:svg="http://www.w3.org/2000/svg"
   xmlns="http://www.w3.org/2000/svg"
   xmlns:sodipodi="http://sodipodi.sourceforge.net/DTD/sodipodi-0.dtd"
   xmlns:inkscape="http://www.inkscape.org/namespaces/inkscape"
   inkscape:version="1.0 (4035a4fb49, 2020-05-01)"
   sodipodi:docname="ornament 2024 inkscape.svg"
   id="svg61"
   xml:space="preserve"
   style="enable-background:new 0 0 595.3 841.9;"
   viewBox="0 0 595.3 841.9"
   y="0px"
   x="0px"
   version="1.1"><metadata
   id="metadata67"><rdf:RDF><cc:Work
       rdf:about=""><dc:format>image/svg+xml</dc:format><dc:type
         rdf:resource="http://purl.org/dc/dcmitype/StillImage" /></cc:Work></rdf:RDF></metadata><defs
   id="defs65" /><sodipodi:namedview
   inkscape:current-layer="g232"
   inkscape:window-maximized="1"
   inkscape:window-y="-6"
   inkscape:window-x="3833"
   inkscape:cy="100.24693"
   inkscape:cx="150.37824"
   inkscape:zoom="4.0859958"
   showgrid="false"
   id="namedview63"
   inkscape:window-height="1388"
   inkscape:window-width="3440"
   inkscape:pageshadow="2"
   inkscape:pageopacity="0"
   guidetolerance="10"
   gridtolerance="10"
   objecttolerance="10"
   borderopacity="1"
   bordercolor="#666666"
   pagecolor="#ffffff" />
<style
   id="style2"
   type="text/css">
	.st0{fill:#A884BC;}
	.st1{fill:none;stroke:#000000;stroke-miterlimit:10;}
	.st2{stroke:#000000;stroke-miterlimit:10;}
</style>



<style
   type="text/css"
   id="style69">
	.st0{fill:#A884BC;}
	.st1{fill:none;stroke:#000000;stroke-miterlimit:10;}
	.st2{stroke:#000000;stroke-miterlimit:10;}
</style><g
   inkscape:label="F.Cu"
   id="layer1"
   inkscape:groupmode="layer"><g
     id="snowflake">
	<g
   id="g30">
		<polygon
   id="polygon4"
   points="88.5,14.4 81.8,12.6 77.3,29.4 65.5,8.9 59.6,12.4 71.4,32.8 54.6,28.3 52.8,35 76.2,41.3 85.5,57.3 54.7,49 54.4,48.9 52.6,55.6 90.4,65.7 105.3,91.7 111.3,88.2 96.3,62.3 106.4,24.8 106.5,24.5 99.8,22.7 91.5,53.8 82.2,37.8 "
   class="st0" />
		<polygon
   id="polygon6"
   points="26.8,121.2 44,104.1 62.5,104.1 39.7,126.8 44.6,131.7 72.2,104.1 102.2,104.1 102.2,97.2 72.2,97.2 44.6,69.5 39.7,74.4 62.5,97.2 44,97.2 26.8,80 21.9,84.9 34.2,97.2 10.6,97.2 10.6,104.1 34.2,104.1 21.9,116.4 "
   class="st0" />
		<polygon
   id="polygon8"
   points="59.6,188.8 65.5,192.3 77.3,171.9 81.8,188.6 88.5,186.9 82.2,163.4 91.5,147.4 99.8,178.5 106.5,176.7 96.3,138.9 111.2,113.3 111.3,113 105.3,109.6 90.4,135.5 52.6,145.6 54.4,152.3 85.5,144 76.2,160 52.8,166.2 54.6,172.9 71.4,168.4 59.7,188.6 "
   class="st0" />
		<polygon
   id="polygon10"
   points="137.5,147.4 146.8,163.4 140.5,186.9 147.1,188.6 151.6,171.9 163.3,192 163.4,192.3 169.4,188.8 157.6,168.4 174.1,172.8 174.4,172.9 176.2,166.2 152.7,160 143.5,144 174.3,152.2 174.6,152.3 176.4,145.6 138.6,135.5 123.8,109.8 123.6,109.6 117.7,113 132.6,138.9 122.5,176.7 129.2,178.5 "
   class="st0" />
		<polygon
   id="polygon12"
   points="166.5,104.1 185,104.1 202.2,121.2 207,116.4 194.8,104.1 218.4,104.1 218.4,97.2 194.8,97.2 207,84.9 202.2,80 185,97.2 166.5,97.2 189.3,74.4 184.4,69.5 156.8,97.2 126.8,97.2 126.8,104.1 156.8,104.1 184.4,131.7 189.3,126.8 "
   class="st0" />
		<polygon
   id="polygon14"
   points="163.4,8.9 151.6,29.4 147.1,12.6 140.5,14.4 146.8,37.8 137.5,53.8 129.3,23 129.2,22.7 122.5,24.5 132.6,62.3 117.7,88.2 123.6,91.7 138.6,65.7 176.1,55.7 176.4,55.6 174.6,48.9 143.5,57.3 152.7,41.3 176.2,35 174.4,28.3 157.6,32.8 169.4,12.4 "
   class="st0" />
		<path
   id="path16"
   d="m 114.5,90 c -1.9,0 -3.7,0.5 -5.3,1.4 -2.5,1.4 -4.2,3.7 -4.9,6.4 -0.7,2.7 -0.4,5.6 1.1,8.1 1.9,3.3 5.4,5.3 9.2,5.3 1.9,0 3.7,-0.5 5.3,-1.4 2.5,-1.4 4.2,-3.7 5,-6.4 0.7,-2.7 0.4,-5.6 -1.1,-8.1 -2,-3.3 -5.5,-5.3 -9.3,-5.3 z m -3.6,9.7 c 0.3,-1 0.9,-1.8 1.7,-2.3 0.6,-0.3 1.2,-0.5 1.9,-0.5 1.3,0 2.6,0.7 3.2,1.9 0.5,0.9 0.6,1.9 0.4,2.8 -0.3,1 -0.9,1.8 -1.7,2.3 -0.6,0.3 -1.2,0.5 -1.9,0.5 -1.3,0 -2.6,-0.7 -3.2,-1.9 -0.5,-0.9 -0.7,-1.9 -0.4,-2.8 z"
   class="st0" />
		<path
   id="path18"
   d="M 114.5,87.1 129.3,62.5 114.5,37.9 99.7,62.5 Z m 0,-13.4 -6.7,-11.2 6.7,-11.2 6.7,11.2 z"
   class="st0" />
		<path
   id="path20"
   d="M 74.1,94.4 102.8,93.9 88.9,68.8 60.2,69.3 Z m 4,-7 -6.3,-11.4 13.1,-0.2 6.3,11.4 z"
   class="st0" />
		<path
   id="path22"
   d="m 74.1,106.9 -14,25.1 28.5,0.5 h 0.2 l 13.9,-25.1 -28.5,-0.5 z m -2.3,18.4 6.3,-11.4 13.1,0.2 -6.3,11.4 z"
   class="st0" />
		<path
   id="path24"
   d="m 114.5,114.1 -14.8,24.6 14.8,24.6 14.8,-24.6 z m 0,13.4 6.7,11.2 -6.7,11.2 -6.7,-11.2 z"
   class="st0" />
		<path
   id="path26"
   d="m 140.1,132.5 28.7,-0.5 -13.8,-25 -0.1,-0.2 -28.7,0.5 13.9,25 z m 10.8,-18.6 6.3,11.4 -13.1,0.2 -6.3,-11.4 z"
   class="st0" />
		<path
   id="path28"
   d="m 154.9,94.4 13.9,-25.1 -28.7,-0.5 -13.9,25.1 z m 2.3,-18.4 -6.3,11.4 -13.1,-0.2 6.3,-11.4 z"
   class="st0" />
	</g>
</g></g><g
   inkscape:groupmode="layer"
   id="g232"
   inkscape:label="F.Mask"><g
     id="g230">
	<g
   id="g228">
		<polygon
   class="st0"
   points="106.5,24.5 99.8,22.7 91.5,53.8 82.2,37.8 88.5,14.4 81.8,12.6 77.3,29.4 65.5,8.9 59.6,12.4 71.4,32.8 54.6,28.3 52.8,35 76.2,41.3 85.5,57.3 54.7,49 54.4,48.9 52.6,55.6 90.4,65.7 105.3,91.7 111.3,88.2 96.3,62.3 106.4,24.8 "
   id="polygon202" />
		<polygon
   class="st0"
   points="10.6,97.2 10.6,104.1 34.2,104.1 21.9,116.4 26.8,121.2 44,104.1 62.5,104.1 39.7,126.8 44.6,131.7 72.2,104.1 102.2,104.1 102.2,97.2 72.2,97.2 44.6,69.5 39.7,74.4 62.5,97.2 44,97.2 26.8,80 21.9,84.9 34.2,97.2 "
   id="polygon204" />
		<polygon
   class="st0"
   points="52.8,166.2 54.6,172.9 71.4,168.4 59.7,188.6 59.6,188.8 65.5,192.3 77.3,171.9 81.8,188.6 88.5,186.9 82.2,163.4 91.5,147.4 99.8,178.5 106.5,176.7 96.3,138.9 111.2,113.3 111.3,113 105.3,109.6 90.4,135.5 52.6,145.6 54.4,152.3 85.5,144 76.2,160 "
   id="polygon206" />
		<polygon
   class="st0"
   points="117.7,113 132.6,138.9 122.5,176.7 129.2,178.5 137.5,147.4 146.8,163.4 140.5,186.9 147.1,188.6 151.6,171.9 163.3,192 163.4,192.3 169.4,188.8 157.6,168.4 174.1,172.8 174.4,172.9 176.2,166.2 152.7,160 143.5,144 174.3,152.2 174.6,152.3 176.4,145.6 138.6,135.5 123.8,109.8 123.6,109.6 "
   id="polygon208" />
		<polygon
   class="st0"
   points="126.8,104.1 156.8,104.1 184.4,131.7 189.3,126.8 166.5,104.1 185,104.1 202.2,121.2 207,116.4 194.8,104.1 218.4,104.1 218.4,97.2 194.8,97.2 207,84.9 202.2,80 185,97.2 166.5,97.2 189.3,74.4 184.4,69.5 156.8,97.2 126.8,97.2 "
   id="polygon210" />
		<polygon
   class="st0"
   points="176.2,35 174.4,28.3 157.6,32.8 169.4,12.4 163.4,8.9 151.6,29.4 147.1,12.6 140.5,14.4 146.8,37.8 137.5,53.8 129.3,23 129.2,22.7 122.5,24.5 132.6,62.3 117.7,88.2 123.6,91.7 138.6,65.7 176.1,55.7 176.4,55.6 174.6,48.9 143.5,57.3 152.7,41.3 "
   id="polygon212" />
		<path
   class="st0"
   d="m 114.5,90 c -1.9,0 -3.7,0.5 -5.3,1.4 -2.5,1.4 -4.2,3.7 -4.9,6.4 -0.7,2.7 -0.4,5.6 1.1,8.1 1.9,3.3 5.4,5.3 9.2,5.3 1.9,0 3.7,-0.5 5.3,-1.4 2.5,-1.4 4.2,-3.7 5,-6.4 0.7,-2.7 0.4,-5.6 -1.1,-8.1 -2,-3.3 -5.5,-5.3 -9.3,-5.3 z m -3.6,9.7 c 0.3,-1 0.9,-1.8 1.7,-2.3 0.6,-0.3 1.2,-0.5 1.9,-0.5 1.3,0 2.6,0.7 3.2,1.9 0.5,0.9 0.6,1.9 0.4,2.8 -0.3,1 -0.9,1.8 -1.7,2.3 -0.6,0.3 -1.2,0.5 -1.9,0.5 -1.3,0 -2.6,-0.7 -3.2,-1.9 -0.5,-0.9 -0.7,-1.9 -0.4,-2.8 z"
   id="path214" />
		<path
   class="st0"
   d="M 114.5,87.1 129.3,62.5 114.5,37.9 99.7,62.5 Z m 0,-13.4 -6.7,-11.2 6.7,-11.2 6.7,11.2 z"
   id="path216" />
		<path
   class="st0"
   d="M 74.1,94.4 102.8,93.9 88.9,68.8 60.2,69.3 Z m 4,-7 -6.3,-11.4 13.1,-0.2 6.3,11.4 z"
   id="path218" />
		<path
   class="st0"
   d="m 74.1,106.9 -14,25.1 28.5,0.5 h 0.2 l 13.9,-25.1 -28.5,-0.5 z m -2.3,18.4 6.3,-11.4 13.1,0.2 -6.3,11.4 z"
   id="path220" />
		<path
   class="st0"
   d="m 114.5,114.1 -14.8,24.6 14.8,24.6 14.8,-24.6 z m 0,13.4 6.7,11.2 -6.7,11.2 -6.7,-11.2 z"
   id="path222" />
		<path
   class="st0"
   d="m 140.1,132.5 28.7,-0.5 -13.8,-25 -0.1,-0.2 -28.7,0.5 13.9,25 z m 10.8,-18.6 6.3,11.4 -13.1,0.2 -6.3,-11.4 z"
   id="path224" />
		<path
   class="st0"
   d="m 154.9,94.4 13.9,-25.1 -28.7,-0.5 -13.9,25.1 z m 2.3,-18.4 -6.3,11.4 -13.1,-0.2 6.3,-11.4 z"
   id="path226" />
	</g>
</g></g><g
   inkscape:label="Cmts.User"
   id="layer2"
   inkscape:groupmode="layer"><g
     id="leds">
	<rect
   id="rect36"
   height="4.3000002"
   width="8.6000004"
   class="st2"
   transform="matrix(-0.866,-0.5,0.5,-0.866,215.4043,297.0748)"
   y="117.5"
   x="143.2" />
	<rect
   id="rect38"
   height="4.3000002"
   width="8.6000004"
   class="st2"
   transform="matrix(-0.866,0.5,-0.5,-0.866,211.7376,182.0762)"
   y="117.2"
   x="77.199997" />
	
		<rect
   id="rect40"
   height="4.3000002"
   width="8.6000004"
   class="st2"
   transform="rotate(90,114.48895,62.49735)"
   y="60.299999"
   x="110.2" />
	
		<rect
   id="rect42"
   height="4.3000002"
   width="8.6000004"
   class="st2"
   transform="rotate(90,114.4889,138.7399)"
   y="136.60001"
   x="110.2" />
	<rect
   id="rect44"
   height="4.3000002"
   width="8.6000004"
   class="st2"
   transform="matrix(-0.866,0.5,-0.5,-0.866,315.1392,78.6747)"
   y="79.400002"
   x="142.7" />
	<rect
   id="rect46"
   height="4.3000002"
   width="8.6000004"
   class="st2"
   transform="matrix(-0.866,-0.5,0.5,-0.866,112.1393,193.1636)"
   y="79.400002"
   x="77.599998" />
	<g
   id="g48">
	</g>
	<g
   id="g50">
	</g>
	<g
   id="g52">
	</g>
	<g
   id="g54">
	</g>
	<g
   id="g56">
	</g>
	<g
   id="g58">
	</g>
</g></g><g
   inkscape:label="Edge.Cuts"
   id="layer3"
   inkscape:groupmode="layer"><g
     id="outline">
	<path
   id="path33"
   d="m 223.8,105.2 -40,35.4 -10.7,52.4 c -3.2,1.9 -4.8,2.8 -8,4.6 l -50.7,-16.9 -50.7,16.9 c -3.2,-1.9 -4.8,-2.8 -8,-4.6 L 45,140.7 5,105.3 c 0,-3.7 0,-5.5 0,-9.2 L 45,60.7 55.8,8.3 c 3.2,-1.9 4.8,-2.8 8,-4.6 l 50.7,16.9 50.7,-16.9 c 3.2,1.9 4.8,2.8 8,4.6 l 10.7,52.3 40,35.4 c -0.1,3.7 -0.1,5.5 -0.1,9.2 z"
   class="st1" />
</g></g></svg>
