<?xml version="1.0" encoding="utf-8"?>
<!-- Generator: Adobe Illustrator 29.1.0, SVG Export Plug-In . SVG Version: 9.03 Build 55587)  -->
<svg version="1.1" xmlns="http://www.w3.org/2000/svg" xmlns:xlink="http://www.w3.org/1999/xlink" x="0px" y="0px"
	 viewBox="0 0 595.3 841.9" style="enable-background:new 0 0 595.3 841.9;" xml:space="preserve">
<style type="text/css">
	.st0{fill:#2F8F44;}
	.st1{fill:#FED9B6;}
	.st2{fill:#BE1E2D;}
	.st3{fill:#FFFFFF;}
	.st4{fill:#6A0D13;}
</style>
<g id="Layer_2">
	<rect x="3.6" y="2.8" class="st0" width="210.2" height="225.8"/>
</g>
<g id="Copper">
	<g>
		<path class="st1" d="M191.4,113.7c3.7-22.4-0.9-43.1-14.1-61.5c-16.7-23.2-40-35-68.2-36.7c-23.2-1.4-44.2,5.1-62.4,19.8
			C27.4,50.8,17,71.3,15.9,95.9c-1.1,24.4,7.3,45.5,24.1,63.2c0.4,0.4,0.7,0.8,1.2,1.5c-2,0-1.5,0-3.1,0c-2.4,0-4.9,2.1-4.9,4.5
			c0,4.5,0,7.2,0,11.7c0,0.5-0.3,1.3-0.8,1.6c-4.3,2.4-6.8,6.2-7.2,11c-0.4,4.9-0.3,9.8-0.3,14.7c0,3,0.5,3.4,3.5,3.4
			c43.4,0,86.8,0,130.2,0c7.3,0,14.5,0,21.8,0c1.8,0,2.7-0.6,2.7-2.2c0-5,0.1-10-0.3-15c-0.4-5-2.7-9.2-7.1-11.9
			c-0.4-0.3-0.7-1-0.7-1.6c-0.1-4.5,0-7.6,0-12.1c0-1.9-2.4-4-4.3-4c-1.7,0-1.5,0-3.6,0c0.4-0.5,0.6-0.7,0.8-0.9
			C180.6,146.9,188.5,131.5,191.4,113.7z M176.5,183.2c2,2.3,3.2,5,3.3,8.1c0.2,4.3,0,8.6,0,13c-50.5,0-100.9,0-151.3,0
			c0-5.1-0.2-10.1,0.1-15c0.1-1.8,1.2-3.7,2.3-5.3c1.4-2.2,3.4-3.4,6.3-3.4c41.1,0.1,82.2,0.1,123.3,0.1c3.5,0,7,0.2,10.4,0
			C173.4,180.4,175,181.5,176.5,183.2z M171.4,177.2c-44.9,0-89.7,0-134.6,0c0-2.1,0-4.1,0-6.2c44.9,0,89.7,0,134.6,0
			C171.4,173.2,171.4,175.2,171.4,177.2z M171.3,164.1c0,1.3,0,2.7,0,4.1c-44.8,0-89.6,0-134.5,0c0-1.4,0-2.7,0-4.1
			C81.7,164.1,126.4,164.1,171.3,164.1z M46.1,157.8c1.8-2.6,11.2-7.9,19.4-10.4c8.2-2.5,28.9-3.7,38.6-3.6
			c10.4,0.2,22.1,1.5,27.9,2.9c5.8,1.3,16.9,4.2,23.5,7.6c1.9,1.1,3.7,2.6,5.4,4c0.6,0.5,0.9,1.4,1.6,2.4c-4.5,0-8.5,0-12.5,0
			c-34.1,0-68.2,0-102.3,0c-0.7,0-1.6-0.5-2.1-1.1C45.1,159,45.9,158.1,46.1,157.8z M165.9,156c-0.5,0.5-1,0.9-1.5,1.4
			c-6.8-3.9-15.9-8.3-27.2-11.3c-7.2-1.9-14.6-2.9-19.2-3.3c-4.6-0.4-22.9-0.6-22.9-0.6c-8.9,0.1-16.2,0.8-21.7,1.5
			c-5.8,0.8-11.1,2-17.4,4.9c-5.7,2.7-9.9,5.9-12.6,8.3c-0.8-0.8-2.1-2-3.6-3.7c-2.8-3-13.7-15.6-18.1-35.7
			c-1.3-6.1-1.9-12.5-1.7-19.1c0.9-28.6,13.5-51,38.1-66.1c16.8-10.3,35.2-14.5,54.8-12.5c22.7,2.3,42.1,11.6,56.8,29.1
			c17,20.2,22.6,43.6,16.8,69.4C183.1,132.6,176.3,145.3,165.9,156z"/>
	</g>
</g>
<g id="Cut">
	<g id="outline_margin_00000158020533684300101190000018290530502663507384_">
		<path id="cut_line" class="st2" d="M168.8,220.1l-140.3,0c-2.1,0-7.5,0-11.8-4.3c-4.3-4.3-4.2-9.7-4.2-11.8c0-1.3,0-2.6,0-3.9
			c0-3.8,0-7.7,0.4-11.8c0.6-6.5,3.3-12.3,7.9-16.7l0-6.5c0-2.5,0.6-5,1.8-7.3C8.9,139.5,2.4,118.5,3.4,95.4
			c0.6-14.1,4-27.1,9.9-38.9c5.9-11.7,14.5-22.1,25.5-31C59.2,9,83.2,1.4,109.8,3c16,1,30.7,4.9,43.5,11.7
			c13.3,7,24.7,17.2,34.1,30.1c15.1,21,20.6,44.8,16.3,70.9c-2.6,15.7-8.6,29.9-17.8,42.3c1,2.1,1.6,4.4,1.6,6.7c0,1.4,0,2.7,0,3.9
			v0.3c0,1,0,2,0,3c4.6,4.6,7.3,10.7,7.8,17.4c0.4,4.4,0.3,8.6,0.3,12.7c0,1.1,0,2.2,0,3.3c0,4-1.5,7.7-4.2,10.4
			c-2,2-5.5,4.3-11,4.3C176.6,220.1,172.7,220.1,168.8,220.1z M103.1,3.8c-23.7,0-45.1,7.6-63.6,22.5C28.6,35.1,20.1,45.4,14.2,57
			C8.3,68.6,5.1,81.5,4.4,95.4c-1,23,5.4,43.9,19.1,62.1l0.2,0.3l-0.1,0.3c-1.2,2.2-1.8,4.7-1.8,7.1l0,6.9l-0.2,0.1
			c-4.5,4.2-7.2,9.8-7.8,16.2c-0.3,4-0.3,7.9-0.3,11.7c0,1.3,0,2.6,0,3.9c0,1.9-0.1,7,3.9,11c4,4,9.1,4,11.1,4l140.3,0
			c3.9,0,7.8,0,11.7,0c5.2,0,8.5-2.2,10.3-4c2.5-2.5,3.9-6,3.9-9.7c0-1.1,0-2.2,0-3.3c0-4.1,0-8.2-0.3-12.6
			c-0.5-6.6-3.2-12.5-7.7-17l-0.1-0.1l0-0.2c0-1.1,0-2.1,0-3.2v-0.3c0-1.2,0-2.5,0-3.9c0-2.2-0.6-4.4-1.6-6.5l-0.1-0.3l0.2-0.2
			c9.3-12.3,15.3-26.5,17.8-42.1c4.3-25.7-1.2-49.3-16.1-70.1c-9.2-12.8-20.6-22.9-33.7-29.8C140.2,8.8,125.7,4.9,109.8,4
			C107.5,3.9,105.3,3.8,103.1,3.8z"/>
	</g>
</g>
<g id="Silkscreen">
	<g>
		<path class="st3" d="M143,127.7c-2.8-3.1-5.4-6.4-8.1-9.7c-0.3-0.4-0.5-0.8-0.9-1.4c0.6-0.2,1.1-0.2,1.5-0.4
			c1.3-0.6,2.6-1,3.7-1.8c2.3-1.7,2.1-3.3,0.2-5.4c-3.9-4-7.7-8.2-11.6-12.4c-0.3-0.4-0.6-0.9-0.7-1.1c1.8-0.9,3.5-1.6,5-2.7
			c1.8-1.4,1.6-3-0.1-4.5c-4.5-3.7-8.4-7.9-12-12.5c-0.2-0.2-0.3-0.5-0.5-0.7c0.1-0.1,0.2-0.3,0.3-0.4c2.4-2,2.5-3.8,0.4-6.1
			c-1.6-1.7-3.1-3.4-4.6-5.2c-3.5-4.1-6.3-8.7-8.7-13.6c-0.5-0.9-1-2.2-2.2-1.9c-0.8,0.2-1.8,1.1-2.2,1.9c-3.3,7.6-8.2,14.1-13.9,20
			c-1.8,1.8-1.6,3.1,0.8,5.5c-2,2.3-3.9,4.6-6,6.9c-2.1,2.2-4.4,4.3-6.6,6.5c-2.4,2.3-1.8,4.8,1.3,5.8c1.2,0.4,2.5,0.5,3.9,0.8
			c-0.5,0.6-0.9,1.3-1.4,2c-3.8,4.8-8,9.1-12.9,12.7c-2.7,2-2.2,4.8,0.9,5.7c2.9,0.8,5.9,1.4,9.1,2.2c-2.3,2.1-4.5,4.2-6.9,6.2
			c-1.8,1.5-3.8,2.9-5.7,4.3c-2.3,1.7-2.2,4,0.3,5.3c5.7,3,11.8,4.7,18.1,5.6c4.7,0.7,9.4,0.7,14-0.9c1.2-0.4,2.3-0.9,3.5-1.4
			c0,2.1,0,4,0,6.5l7.5,0c0-2.7,0-5,0-7.5c0.7,0.3,1.3,0.6,1.9,0.9c1.5,0.7,3.1,1.4,4.7,1.9c4.5,1.4,6.9,0.4,9.1-3.9
			c0.1,0,0.2-0.1,0.3,0c4.1,2.1,8.3,2,12.5,0.3c1.6-0.6,3.2-1.1,4.7-1.8C144.7,132.3,145,130,143,127.7z M104.6,54.5
			c3.4,6.5,7.5,12.1,12.7,17c0,0.1-0.1,0.3-0.1,0.4c-0.9-0.1-1.8-0.1-2.7-0.3c-0.7-0.1-1.3-0.6-1.9-0.8c-1.4-0.5-2.3-0.1-2.8,1.3
			c-0.4,1-0.5,2.1-0.9,3.1c-0.3,0.7-0.9,1.3-1.5,1.6c-0.3,0.1-1.1-0.6-1.5-1.1c-1.1-1.3-2-2.7-3.1-4c-1.7-1.9-2.8-1.9-4.9-0.4
			c-1.7,1.2-3.3,2.5-5.6,1.6c-0.2-0.1-0.3-0.2-0.6-0.4C96.9,67.3,101.3,61.4,104.6,54.5z M81.6,91.6c-0.5,0-0.9-0.1-1.6-0.2
			c2.2-2.2,4.3-4.1,6.2-6.2c2.2-2.4,4.1-4.9,6.2-7.4c0.3-0.3,0.7-0.8,1-0.8c2.5,0.1,4.5-1.1,6.7-2.5c0.8,1,1.6,2,2.4,3
			c0.2,0.3,0.5,0.6,0.7,0.9c3.1,3.8,6.4,3.4,8.8-0.9c0.4-0.6,0.6-1.3,1-2c1.5-0.1,2.4,0.5,3.3,1.9c3.3,5.1,7.8,9.8,12.7,13.5
			c-1.7,0.8-3.3,0.9-4.7,0c-1.3-0.8-2.3-2.2-3.5-3.3c-0.5-0.4-1.2-0.6-1.8-0.9c-0.3,0.6-0.7,1.1-0.8,1.7c-0.1,0.9,0.2,1.8,0.3,3
			c-1.4-0.5-2.5-0.9-3.6-1.3c-3.5-1.4-6.6-1.1-9.6,1.4c-1.4,1.1-2.9,2.2-4.4,3c-1.1,0.6-2.4,0.9-3.7,1c-2.9,0.3-3.6-0.7-2.5-3.4
			c0.3-0.8,0.9-1.6,1-2.5c0.1-0.7,0-1.7-0.5-2.1c-0.4-0.3-1.6-0.1-2,0.3C89.9,90.8,85.9,91.7,81.6,91.6z M71.4,112.8
			c3.5-3.6,6.9-7,10.2-10.5c1.5-1.7,3-3.4,4.2-5.4c1.1-1.8,2.6-2.5,4.6-2.8c0.8,3.8,3.3,5.6,7.2,5.2c3.3-0.4,6.4-1.6,8.8-3.9
			c2.6-2.5,5.4-2.9,8.5-1.2c0.7,0.4,1.5,0.6,2.2,0.8c1.5,0.5,3,0.5,4.2-1c4.1,6.8,9.1,12.7,15.4,17.9c-0.9,0.3-1.6,0.6-2.4,0.7
			c-4.1,0.5-8-0.2-11.4-2.7c-0.5-0.4-0.9-1-1.4-1.5c-0.4-0.3-0.9-0.7-1.3-0.7c-0.4,0.1-1,0.6-1.1,1c-0.4,1.1-0.5,2.3-0.8,3.5
			c-0.6,2.9-2,3.7-4.7,2.4c-1.5-0.8-2.9-1.9-4.3-2.8c-1.2-0.7-2.4-1.6-3.8-2c-1.9-0.6-3.6,0.2-5.1,1.4c-1.5,1.3-2.9,2.8-4.5,3.9
			c-1.3,0.9-2.8,1.7-4.4,2.1c-2,0.5-3.2-0.8-2.9-2.9c0.1-0.5,0.3-1,0.3-1.4c-0.1-0.7-0.2-1.6-0.6-1.9c-0.4-0.3-1.4-0.1-2,0.3
			C81.7,114.3,76.6,114.4,71.4,112.8z M122.8,128.3c-0.5-0.7-1.2-1.4-2.1-0.8c-0.9,0.5-0.7,1.2-0.3,2.1c0.3,0.8,0.4,1.6,0.4,2.5
			c0,3.1-1.9,4.5-4.8,3.3c-3-1.2-6-2.6-9-4c-1.3-0.6-2.3-0.4-3.5,0.2c-2.7,1.4-5.4,2.9-8.3,3.8c-5.2,1.7-10.4,0.9-15.5-0.4
			c-3.8-1-7.5-2.3-11.5-3.6c2.9-2.3,5.4-4.1,7.7-6.3c2.6-2.4,4.8-5.1,7.2-7.6c0.5-0.5,1.1-0.8,1.8-1.3c2.3,4.6,6,6,10.2,3.8
			c2.4-1.3,4.4-3.1,6.5-4.9c2.4-2.1,3.2-2.3,5.7-0.1c2,1.7,4.1,3.2,6.6,3.9c3.6,1,6.3-0.4,7.8-3.9c0.1-0.4,0.3-0.7,0.3-0.9
			c2.3,0.8,4.5,1.5,6.8,2.3c0.2,0.1,0.4,0.3,0.5,0.5c2.9,4.9,6.6,9.3,10.6,13.4C132.6,134.1,127.5,134.4,122.8,128.3z"/>
		<path class="st3" d="M88.2,128.7c0.2,0.3,0.7,0.7,0.8,1.3c0.2,0.8-1.1,2-1.9,1.7c-0.5-0.1-1.1-0.7-1.3-1.3
			C85.6,129.7,86.8,128.7,88.2,128.7z"/>
		<path class="st3" d="M76.3,112.2c-0.3-0.2-0.9-0.6-0.9-0.8c0.1-0.5,0.4-1.1,0.8-1.3c1.1-0.6,2.5-0.8,3.5-1.5c2-1.3,4-2.7,6-4.1
			c0.4-0.3,0.7-0.7,1.1-0.8c0.4-0.1,1-0.1,1.2,0.2c0.2,0.2,0.3,1,0.1,1.2C84.8,108.3,81.1,110.9,76.3,112.2z"/>
	</g>
	<g>
		<path class="st3" d="M24.5,88.3c1.2-9.9,4.2-18.6,9-26.7c3.8-6.3,8.4-11.9,13.9-16.8c0.7-0.6,1.7-1.9,2.7-0.7
			c0.9,1.2-0.6,1.7-1.3,2.3c-12.4,11.1-20,24.8-22.1,41.5c-0.1,0.8-0.2,1.8-1.3,1.6C25,89.5,24.7,88.5,24.5,88.3z"/>
		<path class="st3" d="M109.9,26.4c13.8,1.1,26,5.2,37,12.8c1,0.7,1.9,1.3,2.8,2.1c0.7,0.6,2.1,1,1.1,2.2c-0.9,1.2-1.7-0.1-2.4-0.6
			c-3.7-2.2-7.2-4.7-11-6.7c-8.3-4.4-17.2-6.7-26.5-7.5c-0.2,0-0.4,0-0.6,0c-0.8-0.1-1.9-0.1-1.6-1.2
			C108.9,26.9,109.7,26.5,109.9,26.4z"/>
		<path class="st3" d="M181.9,119.1c-1.1,3.6-2,7-3.3,10.4c-3,8-7.1,15.4-12.7,21.8c-0.4,0.5-0.8,1-1.3,1.3
			c-0.5,0.3-1.2,0.2-1.7,0.3c0-0.6-0.1-1.3,0.2-1.7c1.6-2.1,3.4-4.1,5-6.2c5.4-7.5,9.2-15.7,11.3-24.8c0.1-0.4,0.1-1,0.3-1.3
			c0.3-0.4,0.8-0.9,1.2-0.9C181.2,118,181.5,118.6,181.9,119.1z"/>
		<path class="st3" d="M27.8,109.3c0.4,1,0.7,1.6,0.8,2.2c0.9,4.3,1.4,8.7,2.6,12.9c2,7.1,5.3,13.7,9.6,19.7
			c0.5,0.7,1.6,1.6,0.4,2.4c-1.2,0.8-1.7-0.4-2.2-1.2c-6.8-10-11.2-20.9-12.3-33.1c0-0.5-0.1-1,0-1.5
			C26.8,110.3,27.2,110,27.8,109.3z"/>
		<path class="st3" d="M177.9,77c-0.2,0.2-0.4,0.7-0.6,0.8c-0.4,0.1-0.9-0.1-1.2-0.4c-0.4-0.4-0.5-1-0.7-1.5c-2-5.6-4.6-11-8.2-15.9
			c-0.3-0.4-0.4-1.5-0.2-1.8c0.7-0.7,1.4,0,1.8,0.6c4,5.3,6.5,11.3,8.8,17.4C177.8,76.4,177.8,76.6,177.9,77z"/>
		<path class="st3" d="M51.7,136.5c0,1.3-1,2.3-2.3,2.4c-1.2,0-2.3-1-2.3-2.2c0-1.2,1.1-2.3,2.3-2.4
			C50.7,134.3,51.7,135.2,51.7,136.5z"/>
		<path class="st3" d="M51.1,63.9c-0.7,0.4-1.3,1-2,1.1c-1,0.1-1.6-0.6-1.6-1.6c0-1.1,0.7-1.8,1.8-1.6c0.7,0.1,1.2,0.9,1.8,1.4
			C51.1,63.4,51.1,63.6,51.1,63.9z"/>
		<path class="st3" d="M35.5,83.5c0.5,0.6,1.2,1.2,1.3,1.8c0.2,1.1-0.6,1.7-1.7,1.7c-1,0-1.8-0.6-1.6-1.6c0.1-0.7,0.8-1.3,1.2-1.9
			C35.1,83.5,35.3,83.5,35.5,83.5z"/>
		<path class="st3" d="M126.3,78.2c-0.5-0.6-1.2-1.2-1.3-1.9c-0.2-1,0.5-1.7,1.5-1.7c1.1,0,1.9,0.6,1.7,1.7
			c-0.1,0.7-0.8,1.3-1.2,1.9C126.8,78.2,126.6,78.2,126.3,78.2z"/>
		<path class="st3" d="M121,44.2c-0.4-0.6-1.1-1.2-1.2-1.9c-0.1-1,0.7-1.6,1.7-1.6c1,0,1.7,0.7,1.5,1.7c-0.1,0.7-0.8,1.2-1.3,1.9
			C121.5,44.3,121.2,44.2,121,44.2z"/>
		<path class="st3" d="M167.4,78.6c0.4,0.6,1.2,1.1,1.2,1.7c0.2,1.1-0.6,1.7-1.7,1.7c-0.9,0-1.7-0.6-1.5-1.5
			c0.2-0.7,0.8-1.3,1.2-1.9C167,78.6,167.2,78.6,167.4,78.6z"/>
		<path class="st3" d="M79,60.4c0.6-0.4,1.2-1.1,1.9-1.2c1-0.2,1.6,0.5,1.6,1.6c0,1-0.7,1.7-1.6,1.6c-0.7-0.1-1.2-0.8-1.8-1.2
			C79,60.9,79,60.6,79,60.4z"/>
		<path class="st3" d="M152.6,58.6c0.4,0.6,1.1,1.1,1.2,1.7c0.2,1-0.5,1.8-1.5,1.6c-0.6-0.1-1.5-0.9-1.5-1.4c0-0.6,0.7-1.3,1.2-1.9
			C152.1,58.6,152.3,58.6,152.6,58.6z"/>
	</g>
	<g>
		<path class="st3" d="M43.5,198.4c-2.3,2-4.5,3-6.4,3c-1.6,0-3-0.6-4.2-1.8c-1.2-1.2-1.9-2.8-1.9-4.9c0-1.5,0.3-2.8,1-3.9
			s1.6-2.1,2.7-2.9c1.2-0.8,2.6-1.2,4.3-1.2c1.5,0,2.8,0.2,4.1,0.7v3.3h-0.8c-0.1-1-0.6-1.9-1.4-2.4c-0.8-0.6-1.8-0.9-2.9-0.9
			c-1.6,0-2.8,0.6-3.8,1.8c-0.9,1.2-1.4,2.6-1.4,4.3c0,1.8,0.5,3.4,1.6,4.6c1,1.2,2.4,1.8,4,1.8c1.6,0,3.3-0.7,5-2.1V198.4z"/>
		<path class="st3" d="M48.4,185.5v0.5c-0.3,0.1-0.5,0.4-0.5,0.8v7.6c0.9-1.2,1.7-2.1,2.4-2.7c0.8-0.6,1.5-0.9,2.2-0.9
			c0.6,0,1,0.2,1.3,0.6c0.3,0.4,0.5,1,0.5,1.8v5.8c0,0.6,0.1,1.1,0.4,1.3c0.3,0.2,0.7,0.4,1.3,0.4v0.5h-3.9v-0.5
			c0.3,0,0.5-0.2,0.5-0.6v-6.6c0-0.5-0.1-0.8-0.3-1.1s-0.5-0.4-0.9-0.4c-0.9,0-1.8,0.7-2.5,2s-1.2,2.8-1.2,4.4
			c0,1.5,0.4,2.2,1.3,2.2h0.4v0.5h-5v-0.5c0.6,0,1-0.1,1.3-0.4c0.3-0.2,0.4-0.7,0.4-1.3v-10.9c0-0.4-0.2-0.7-0.7-0.7
			c-0.3,0-0.6,0.1-0.9,0.2V187L48.4,185.5z"/>
		<path class="st3" d="M57.1,191.8l2.9-1.2h0.5v3.6c0.8-1.3,1.4-2.2,2-2.8c0.6-0.5,1.2-0.8,1.8-0.8c0.2,0,0.5,0.1,0.9,0.2v3.4h-0.8
			c0-1.3-0.4-2-1.2-2c-0.8,0-1.4,0.6-2,1.9c-0.6,1.2-0.9,2.6-0.9,4.2c0,0.9,0.2,1.5,0.5,1.8s1,0.4,2,0.4v0.5h-5.7v-0.5
			c0.6,0,1-0.1,1.3-0.4s0.4-0.7,0.4-1.3v-5.7c0-0.6-0.2-1-0.7-1c-0.2,0-0.5,0.1-1,0.2V191.8z"/>
		<path class="st3" d="M66.1,200.5c0.6,0,1-0.1,1.3-0.4c0.3-0.2,0.4-0.7,0.4-1.4v-6c0-0.5-0.3-0.7-0.8-0.7c-0.2,0-0.4,0-0.6,0.1
			c-0.1,0.1-0.2,0.1-0.3,0.1v-0.6l2.8-1.1h0.5v8.2c0,0.7,0.1,1.1,0.4,1.3c0.3,0.2,0.7,0.4,1.3,0.4v0.5h-5.1V200.5z M68.6,186.1
			c0.3,0,0.6,0.1,0.8,0.3s0.3,0.5,0.3,0.7s-0.1,0.5-0.3,0.7c-0.2,0.2-0.5,0.3-0.7,0.3c-0.3,0-0.5-0.1-0.7-0.3
			c-0.2-0.2-0.3-0.4-0.3-0.7c0-0.3,0.1-0.6,0.3-0.8C68.2,186.2,68.4,186.1,68.6,186.1z"/>
		<path class="st3" d="M73.3,197.7c0.1,1,0.3,1.7,0.8,2.2c0.5,0.5,1.1,0.8,1.8,0.8c0.6,0,1-0.2,1.4-0.5c0.4-0.3,0.5-0.8,0.5-1.3
			c0-0.5-0.1-0.9-0.4-1.2c-0.3-0.3-0.8-0.7-1.6-1.2c-0.6-0.4-1.1-0.7-1.6-1c-0.5-0.3-0.8-0.6-1-1c-0.2-0.3-0.3-0.7-0.3-1
			c0-0.7,0.3-1.3,1-1.9s1.5-0.8,2.6-0.8c0.7,0,1.4,0.1,2.2,0.4v2.9h-0.8c0-0.8-0.2-1.5-0.7-2c-0.4-0.5-1-0.7-1.5-0.7
			c-0.4,0-0.7,0.1-1,0.4c-0.2,0.3-0.3,0.6-0.3,0.9c0,0.4,0.1,0.7,0.4,1c0.3,0.3,0.8,0.7,1.6,1.2c1.3,0.8,2.2,1.4,2.5,1.8
			c0.3,0.4,0.5,0.8,0.5,1.4c0,0.9-0.4,1.7-1.2,2.4c-0.8,0.7-1.7,1-2.8,1c-0.8,0-1.7-0.2-2.7-0.7v-3.1H73.3z"/>
		<path class="st3" d="M84.2,187.5v0.6c-0.5,0.1-0.7,0.6-0.7,1.6c0,0.6,0.1,1.1,0.2,1.3c0.1,0.2,0.3,0.5,0.6,0.6
			c0.3,0.2,0.6,0.2,1.1,0.2h0.9v0.5h-2.7v7.1c0,0.2,0,0.4,0.1,0.5c0.1,0.1,0.2,0.2,0.4,0.2c0.4,0,0.9-0.3,1.6-0.9
			c0.1-0.1,0.1-0.1,0.2-0.1v0.6c-1.3,1.1-2.3,1.7-3,1.7c-0.3,0-0.6-0.1-0.8-0.4c-0.2-0.3-0.3-0.7-0.3-1.2v-7.5h-1.7v-0.5
			c0.6,0,1.1-0.1,1.4-0.4c0.3-0.3,0.4-0.7,0.4-1.4v-1.7L84.2,187.5z"/>
		<path class="st3" d="M96.4,193.9c1.1-1.4,2-2.3,2.6-2.7c0.6-0.4,1.1-0.6,1.7-0.6c0.5,0,1,0.2,1.3,0.5c0.3,0.4,0.5,0.8,0.5,1.4v6.2
			c0,0.7,0.1,1.1,0.4,1.3c0.3,0.2,0.7,0.4,1.3,0.4v0.5h-3.8v-0.5c0.3,0,0.5-0.2,0.5-0.5v-6.3c0-0.6-0.1-1-0.3-1.3s-0.5-0.4-0.9-0.4
			c-0.9,0-1.6,0.6-2.3,1.9c-0.7,1.3-1,2.7-1,4.3c0,0.9,0.1,1.6,0.4,1.9s0.7,0.5,1.4,0.5v0.5h-3.8v-0.5c0.3,0,0.5-0.2,0.5-0.4v-6.8
			c0-0.4-0.1-0.8-0.3-1c-0.2-0.3-0.5-0.4-0.8-0.4c-0.9,0-1.7,0.6-2.4,1.9c-0.7,1.2-1,2.7-1,4.3c0,0.9,0.1,1.5,0.4,1.9
			c0.3,0.3,0.7,0.5,1.4,0.5v0.5h-5v-0.5c0.6,0,1-0.1,1.3-0.4c0.3-0.2,0.4-0.7,0.4-1.3V193c0-0.6-0.2-0.9-0.7-0.9
			c-0.2,0-0.6,0.1-0.9,0.2v-0.6l2.8-1.1h0.5v3.4c1.1-1.5,2-2.4,2.5-2.8c0.6-0.4,1.2-0.6,1.7-0.6c0.6,0,1.1,0.2,1.3,0.6
			c0.3,0.4,0.4,1.1,0.4,1.9C96.4,193.4,96.4,193.7,96.4,193.9z"/>
		<path class="st3" d="M106.3,192.3c1.7-1.1,3.3-1.7,4.8-1.7c0.7,0,1.2,0.2,1.5,0.5c0.3,0.3,0.5,0.8,0.5,1.6v6.9
			c0,0.3,0.1,0.5,0.4,0.5c0.3,0,0.8-0.3,1.5-1v0.7c-1.1,1.1-2,1.6-2.7,1.6c-0.6,0-0.9-0.4-0.9-1.1v-1.6c-0.9,0.9-1.7,1.6-2.3,2.1
			s-1.2,0.6-1.8,0.6c-0.6,0-1-0.2-1.4-0.6c-0.4-0.4-0.6-1-0.6-1.6c0-1.6,2-3.3,6.1-5.2v-1.3c0-0.4-0.1-0.7-0.4-1
			c-0.2-0.3-0.6-0.4-1-0.4c-0.7,0-1.4,0.4-1.9,1.1c-0.6,0.7-0.9,1.6-1,2.6h-0.7V192.3z M111.4,194.9c-1.4,0.3-2.5,0.8-3.3,1.4
			s-1.3,1.4-1.3,2.1c0,0.5,0.1,0.8,0.4,1.1s0.7,0.4,1.1,0.4c0.8,0,1.6-0.4,2.1-1.3C111.1,197.7,111.4,196.5,111.4,194.9z"/>
		<path class="st3" d="M116.8,197.7c0.1,1,0.3,1.7,0.8,2.2c0.5,0.5,1.1,0.8,1.8,0.8c0.6,0,1-0.2,1.4-0.5c0.4-0.3,0.5-0.8,0.5-1.3
			c0-0.5-0.1-0.9-0.4-1.2c-0.3-0.3-0.8-0.7-1.6-1.2c-0.6-0.4-1.1-0.7-1.6-1c-0.5-0.3-0.8-0.6-1-1c-0.2-0.3-0.3-0.7-0.3-1
			c0-0.7,0.3-1.3,1-1.9s1.5-0.8,2.6-0.8c0.7,0,1.4,0.1,2.2,0.4v2.9h-0.8c0-0.8-0.2-1.5-0.7-2c-0.4-0.5-1-0.7-1.5-0.7
			c-0.4,0-0.7,0.1-1,0.4c-0.2,0.3-0.3,0.6-0.3,0.9c0,0.4,0.1,0.7,0.4,1c0.3,0.3,0.8,0.7,1.6,1.2c1.3,0.8,2.2,1.4,2.5,1.8
			c0.3,0.4,0.5,0.8,0.5,1.4c0,0.9-0.4,1.7-1.2,2.4c-0.8,0.7-1.7,1-2.8,1c-0.8,0-1.7-0.2-2.7-0.7v-3.1H116.8z"/>
		<path class="st3" d="M131.4,188.3c0.9-0.6,1.7-1,2.6-1.2c0.8-0.3,1.6-0.4,2.4-0.4c1,0,1.8,0.3,2.5,0.8c0.7,0.5,1,1.2,1,2
			c0,0.7-0.2,1.5-0.7,2.2c-0.4,0.7-1.4,1.8-2.8,3.1l-4.7,4.6h6.2c0.6,0,1.1-0.1,1.4-0.4c0.3-0.3,0.5-0.7,0.6-1.3h0.5l-0.8,3.9h-0.5
			v-0.1c0-0.3-0.1-0.4-0.4-0.4h-8.6v-0.5l3.2-3.9c0.5-0.6,1.2-1.5,2.2-2.8c0.9-1.3,1.6-2.2,1.8-2.9s0.4-1.2,0.4-1.7
			c0-0.5-0.2-1-0.5-1.4c-0.4-0.4-0.8-0.6-1.4-0.6c-0.9,0-1.7,0.4-2.4,1.3c-0.7,0.9-1.1,1.9-1.2,3.1h-0.7V188.3z"/>
		<path class="st3" d="M148.3,186.6c1.3,0,2.5,0.6,3.4,1.7c0.9,1.1,1.4,2.7,1.4,4.6c0,2.4-0.7,4.4-2,6.1s-2.7,2.5-4.2,2.5
			c-0.8,0-1.6-0.3-2.3-0.8c-0.8-0.5-1.3-1.2-1.7-2.1c-0.4-0.9-0.6-2-0.6-3.3c0-2.4,0.6-4.5,1.9-6.1S146.9,186.6,148.3,186.6z
			 M147.3,187.8c-1.1,0-2,0.5-2.5,1.6c-0.6,1.1-0.9,2.4-0.9,4.1c0,1.8,0.4,3.4,1.3,4.7c0.9,1.3,1.9,1.9,3,1.9c1,0,1.8-0.5,2.4-1.4
			c0.6-1,0.9-2.3,0.9-4.1c0-1.3-0.2-2.4-0.6-3.5c-0.4-1.1-0.9-1.9-1.6-2.4C148.6,188.1,147.9,187.8,147.3,187.8z"/>
		<path class="st3" d="M156.4,188.3c0.9-0.6,1.7-1,2.6-1.2c0.8-0.3,1.6-0.4,2.4-0.4c1,0,1.8,0.3,2.5,0.8c0.7,0.5,1,1.2,1,2
			c0,0.7-0.2,1.5-0.7,2.2c-0.4,0.7-1.4,1.8-2.8,3.1l-4.7,4.6h6.2c0.6,0,1.1-0.1,1.4-0.4c0.3-0.3,0.5-0.7,0.6-1.3h0.5l-0.8,3.9H164
			v-0.1c0-0.3-0.1-0.4-0.4-0.4H155v-0.5l3.2-3.9c0.5-0.6,1.2-1.5,2.2-2.8c0.9-1.3,1.6-2.2,1.8-2.9s0.4-1.2,0.4-1.7
			c0-0.5-0.2-1-0.5-1.4c-0.4-0.4-0.8-0.6-1.4-0.6c-0.9,0-1.7,0.4-2.4,1.3c-0.7,0.9-1.1,1.9-1.2,3.1h-0.7V188.3z"/>
		<path class="st3" d="M174.7,186.5h0.6v9.4h2.2v1.1h-2.2v2.1c0,0.9,0.5,1.4,1.4,1.4h0.3v0.5h-5.5v-0.5h0.5c1,0,1.6-0.5,1.6-1.4
			v-2.1h-6.4v-0.5l4.3-5.5C172.9,189.3,174,187.8,174.7,186.5z M173.5,190.1c-1,1-1.9,2-2.8,3l-2.2,2.8h5V190.1z"/>
	</g>
	<g id="white_outline_silkscreen_00000004512915937081773770000004099289359413479069_">
		<path class="st3" d="M187,45.1c-9.3-12.9-20.7-23-33.9-30c-12.8-6.8-27.4-10.7-43.3-11.7c-2.3-0.1-4.5-0.2-6.7-0.2
			c-23.8,0-45.3,7.6-63.9,22.6c-10.9,8.8-19.5,19.2-25.4,30.8C7.9,68.4,4.6,81.4,3.9,95.4c-1,23.2,5.4,44.1,19.2,62.4
			c-1.2,2.2-1.8,4.7-1.8,7.4c0,1.3,0,2.4,0,3.5c0,1.1,0,2.1,0,3.2c-4.6,4.3-7.4,10-7.9,16.5c-0.4,4.1-0.4,8-0.3,11.7
			c0,1.3,0,2.6,0,3.9c0,2-0.1,7.2,4.1,11.4c4.1,4.2,9.4,4.2,11.4,4.2l130.2,0l3.9,0l6.1,0c3.9,0,7.8,0,11.7,0
			c5.4,0,8.8-2.3,10.7-4.2c2.6-2.6,4-6.2,4-10.1c0-1.1,0-2.2,0-3.3c0-4.1,0-8.3-0.3-12.6c-0.6-6.8-3.3-12.7-7.8-17.3
			c0-1.1,0-2.1,0-3.2c0-1.3,0-2.7,0-4.2c0-2.4-0.6-4.7-1.7-6.7c9.3-12.4,15.3-26.6,17.9-42.3C207.5,89.7,202.1,66,187,45.1z
			 M197.3,114.6c-2.7,16.2-9.2,30.7-19.5,43.1c1.9,1.9,3.2,4.4,3.2,6.9c0,1.5,0,2.9,0,4.2c0,1.9,0,3.8,0,5.9
			c4.6,3.7,7.3,8.9,7.8,15.1c0.3,4.1,0.3,8.2,0.3,12.1c0,1.1,0,2.2,0,3.4c0,2.9-1.2,4.8-2.3,5.8c-1.6,1.6-3.7,2.4-6.4,2.4
			c-3.9,0-7.8,0-11.7,0l-6.2,0l-3.9,0l-130.2,0c-1.6,0-4.8,0-7.2-2.4c-2.4-2.4-2.3-5.6-2.3-7.1c0-1.3,0-2.6,0-4
			c0-3.6,0-7.4,0.3-11.2c0.5-5.8,3.3-10.8,8-14.2c0-2.2,0-4,0-6c0-1.1,0-2.2,0-3.5c0-2.9,1.3-5.5,3.4-7.5
			c-14.8-18-21.8-38.8-20.8-62c1.2-26.4,12.3-48.3,33-65.1C60.4,16.4,80.6,9.3,103.1,9.3c2.1,0,4.2,0.1,6.4,0.2
			c30.9,1.8,55.3,15,72.7,39.2C196.2,68.2,201.3,90.4,197.3,114.6z"/>
	</g>
</g>
<g id="Leds">
	
		<rect x="165.9" y="100.6" transform="matrix(-1.836970e-16 1 -1 -1.836970e-16 272.9388 -67.4957)" class="st4" width="8.6" height="4.3"/>
	
		<rect x="149.4" y="122.7" transform="matrix(-1.836970e-16 1 -1 -1.836970e-16 278.6317 -28.878)" class="st4" width="8.6" height="4.3"/>
	
		<rect x="59.3" y="74.3" transform="matrix(-1.836970e-16 1 -1 -1.836970e-16 140.0929 12.8248)" class="st4" width="8.6" height="4.3"/>
	
		<rect x="73.2" y="36" transform="matrix(-1.836970e-16 1 -1 -1.836970e-16 115.7266 -39.3566)" class="st4" width="8.6" height="4.3"/>
	
		<rect x="132.5" y="52.3" transform="matrix(-1.836970e-16 1 -1 -1.836970e-16 191.2705 -82.3283)" class="st4" width="8.6" height="4.3"/>
	
		<rect x="43.2" y="109.3" transform="matrix(-1.836970e-16 1 -1 -1.836970e-16 158.9483 63.9157)" class="st4" width="8.6" height="4.3"/>
	<g>
	</g>
	<g>
	</g>
	<g>
	</g>
	<g>
	</g>
	<g>
	</g>
	<g>
	</g>
</g>
</svg>
