<?xml version="1.0" encoding="UTF-8" standalone="no"?>
<svg
   xmlns:dc="http://purl.org/dc/elements/1.1/"
   xmlns:cc="http://creativecommons.org/ns#"
   xmlns:rdf="http://www.w3.org/1999/02/22-rdf-syntax-ns#"
   xmlns:svg="http://www.w3.org/2000/svg"
   xmlns="http://www.w3.org/2000/svg"
   xmlns:sodipodi="http://sodipodi.sourceforge.net/DTD/sodipodi-0.dtd"
   xmlns:inkscape="http://www.inkscape.org/namespaces/inkscape"
   version="1.1"
   x="0px"
   y="0px"
   viewBox="0 0 595.3 841.9"
   style="enable-background:new 0 0 595.3 841.9;"
   xml:space="preserve"
   id="svg108"
   sodipodi:docname="snowglobe inkscape.svg"
   inkscape:version="1.0 (4035a4fb49, 2020-05-01)"><metadata
   id="metadata114"><rdf:RDF><cc:Work
       rdf:about=""><dc:format>image/svg+xml</dc:format><dc:type
         rdf:resource="http://purl.org/dc/dcmitype/StillImage" /></cc:Work></rdf:RDF></metadata><defs
   id="defs112" /><sodipodi:namedview
   inkscape:document-rotation="0"
   pagecolor="#ffffff"
   bordercolor="#666666"
   borderopacity="1"
   objecttolerance="10"
   gridtolerance="10"
   guidetolerance="10"
   inkscape:pageopacity="0"
   inkscape:pageshadow="2"
   inkscape:window-width="1920"
   inkscape:window-height="1028"
   id="namedview110"
   showgrid="false"
   inkscape:zoom="5.7784707"
   inkscape:cx="132.86603"
   inkscape:cy="125.79619"
   inkscape:window-x="-6"
   inkscape:window-y="-6"
   inkscape:window-maximized="1"
   inkscape:current-layer="outline_margin_00000158020533684300101190000018290530502663507384_" />
<style
   type="text/css"
   id="style2">
	.st0{fill:#2F8F44;}
	.st1{fill:#FED9B6;}
	.st2{fill:#BE1E2D;}
	.st3{fill:#FFFFFF;}
	.st4{fill:#6A0D13;}
</style>





<g
   inkscape:groupmode="layer"
   id="layer6"
   inkscape:label="B.SilkS"><path
     id="path79-9"
     d="M 187,45.1 C 177.7,32.2 166.3,22.1 153.1,15.1 140.3,8.3 125.7,4.4 109.8,3.4 107.5,3.3 105.3,3.2 103.1,3.2 79.3,3.2 57.8,10.8 39.2,25.8 28.3,34.6 19.7,45 13.8,56.6 7.9,68.4 4.6,81.4 3.9,95.4 c -1,23.2 5.4,44.1 19.2,62.4 -1.2,2.2 -1.8,4.7 -1.8,7.4 0,1.3 0,2.4 0,3.5 0,1.1 0,2.1 0,3.2 -4.6,4.3 -7.4,10 -7.9,16.5 -0.4,4.1 -0.4,8 -0.3,11.7 0,1.3 0,2.6 0,3.9 0,2 -0.1,7.2 4.1,11.4 4.1,4.2 9.4,4.2 11.4,4.2 h 130.2 3.9 6.1 c 3.9,0 7.8,0 11.7,0 5.4,0 8.8,-2.3 10.7,-4.2 2.6,-2.6 4,-6.2 4,-10.1 0,-1.1 0,-2.2 0,-3.3 0,-4.1 0,-8.3 -0.3,-12.6 -0.6,-6.8 -3.3,-12.7 -7.8,-17.3 0,-1.1 0,-2.1 0,-3.2 0,-1.3 0,-2.7 0,-4.2 0,-2.4 -0.6,-4.7 -1.7,-6.7 9.3,-12.4 15.3,-26.6 17.9,-42.3 4.2,-26 -1.2,-49.7 -16.3,-70.6 z m 10.3,69.5 c -2.7,16.2 -9.2,30.7 -19.5,43.1 1.9,1.9 3.2,4.4 3.2,6.9 0,1.5 0,2.9 0,4.2 0,1.9 0,3.8 0,5.9 4.6,3.7 7.3,8.9 7.8,15.1 0.3,4.1 0.3,8.2 0.3,12.1 0,1.1 0,2.2 0,3.4 0,2.9 -1.2,4.8 -2.3,5.8 -1.6,1.6 -3.7,2.4 -6.4,2.4 -3.9,0 -7.8,0 -11.7,0 h -6.2 -3.9 -130.2 c -1.6,0 -4.8,0 -7.2,-2.4 -2.4,-2.4 -2.3,-5.6 -2.3,-7.1 0,-1.3 0,-2.6 0,-4 0,-3.6 0,-7.4 0.3,-11.2 0.5,-5.8 3.3,-10.8 8,-14.2 0,-2.2 0,-4 0,-6 0,-1.1 0,-2.2 0,-3.5 0,-2.9 1.3,-5.5 3.4,-7.5 C 15.8,139.6 8.8,118.8 9.8,95.6 11,69.2 22.1,47.3 42.8,30.5 60.4,16.4 80.6,9.3 103.1,9.3 c 2.1,0 4.2,0.1 6.4,0.2 30.9,1.8 55.3,15 72.7,39.2 14,19.5 19.1,41.7 15.1,65.9 z"
     class="st3"
     style="display:inline;fill:#ffffff" /></g><g
   inkscape:groupmode="layer"
   id="layer1"
   inkscape:label="F.SilkS"
   style="display:inline"><g
     id="Silkscreen">
	<g
   id="g21">
		<path
   class="st3"
   d="m 143,127.7 c -2.8,-3.1 -5.4,-6.4 -8.1,-9.7 -0.3,-0.4 -0.5,-0.8 -0.9,-1.4 0.6,-0.2 1.1,-0.2 1.5,-0.4 1.3,-0.6 2.6,-1 3.7,-1.8 2.3,-1.7 2.1,-3.3 0.2,-5.4 -3.9,-4 -7.7,-8.2 -11.6,-12.4 -0.3,-0.4 -0.6,-0.9 -0.7,-1.1 1.8,-0.9 3.5,-1.6 5,-2.7 1.8,-1.4 1.6,-3 -0.1,-4.5 -4.5,-3.7 -8.4,-7.9 -12,-12.5 -0.2,-0.2 -0.3,-0.5 -0.5,-0.7 0.1,-0.1 0.2,-0.3 0.3,-0.4 2.4,-2 2.5,-3.8 0.4,-6.1 -1.6,-1.7 -3.1,-3.4 -4.6,-5.2 -3.5,-4.1 -6.3,-8.7 -8.7,-13.6 -0.5,-0.9 -1,-2.2 -2.2,-1.9 -0.8,0.2 -1.8,1.1 -2.2,1.9 -3.3,7.6 -8.2,14.1 -13.9,20 -1.8,1.8 -1.6,3.1 0.8,5.5 -2,2.3 -3.9,4.6 -6,6.9 -2.1,2.2 -4.4,4.3 -6.6,6.5 -2.4,2.3 -1.8,4.8 1.3,5.8 1.2,0.4 2.5,0.5 3.9,0.8 -0.5,0.6 -0.9,1.3 -1.4,2 -3.8,4.8 -8,9.1 -12.9,12.7 -2.7,2 -2.2,4.8 0.9,5.7 2.9,0.8 5.9,1.4 9.1,2.2 -2.3,2.1 -4.5,4.2 -6.9,6.2 -1.8,1.5 -3.8,2.9 -5.7,4.3 -2.3,1.7 -2.2,4 0.3,5.3 5.7,3 11.8,4.7 18.1,5.6 4.7,0.7 9.4,0.7 14,-0.9 1.2,-0.4 2.3,-0.9 3.5,-1.4 0,2.1 0,4 0,6.5 h 7.5 c 0,-2.7 0,-5 0,-7.5 0.7,0.3 1.3,0.6 1.9,0.9 1.5,0.7 3.1,1.4 4.7,1.9 4.5,1.4 6.9,0.4 9.1,-3.9 0.1,0 0.2,-0.1 0.3,0 4.1,2.1 8.3,2 12.5,0.3 1.6,-0.6 3.2,-1.1 4.7,-1.8 3,-1.1 3.3,-3.4 1.3,-5.7 z M 104.6,54.5 c 3.4,6.5 7.5,12.1 12.7,17 0,0.1 -0.1,0.3 -0.1,0.4 -0.9,-0.1 -1.8,-0.1 -2.7,-0.3 -0.7,-0.1 -1.3,-0.6 -1.9,-0.8 -1.4,-0.5 -2.3,-0.1 -2.8,1.3 -0.4,1 -0.5,2.1 -0.9,3.1 -0.3,0.7 -0.9,1.3 -1.5,1.6 -0.3,0.1 -1.1,-0.6 -1.5,-1.1 -1.1,-1.3 -2,-2.7 -3.1,-4 -1.7,-1.9 -2.8,-1.9 -4.9,-0.4 -1.7,1.2 -3.3,2.5 -5.6,1.6 -0.2,-0.1 -0.3,-0.2 -0.6,-0.4 5.2,-5.2 9.6,-11.1 12.9,-18 z m -23,37.1 c -0.5,0 -0.9,-0.1 -1.6,-0.2 2.2,-2.2 4.3,-4.1 6.2,-6.2 2.2,-2.4 4.1,-4.9 6.2,-7.4 0.3,-0.3 0.7,-0.8 1,-0.8 2.5,0.1 4.5,-1.1 6.7,-2.5 0.8,1 1.6,2 2.4,3 0.2,0.3 0.5,0.6 0.7,0.9 3.1,3.8 6.4,3.4 8.8,-0.9 0.4,-0.6 0.6,-1.3 1,-2 1.5,-0.1 2.4,0.5 3.3,1.9 3.3,5.1 7.8,9.8 12.7,13.5 -1.7,0.8 -3.3,0.9 -4.7,0 -1.3,-0.8 -2.3,-2.2 -3.5,-3.3 -0.5,-0.4 -1.2,-0.6 -1.8,-0.9 -0.3,0.6 -0.7,1.1 -0.8,1.7 -0.1,0.9 0.2,1.8 0.3,3 -1.4,-0.5 -2.5,-0.9 -3.6,-1.3 -3.5,-1.4 -6.6,-1.1 -9.6,1.4 -1.4,1.1 -2.9,2.2 -4.4,3 -1.1,0.6 -2.4,0.9 -3.7,1 -2.9,0.3 -3.6,-0.7 -2.5,-3.4 0.3,-0.8 0.9,-1.6 1,-2.5 0.1,-0.7 0,-1.7 -0.5,-2.1 -0.4,-0.3 -1.6,-0.1 -2,0.3 -3.3,3 -7.3,3.9 -11.6,3.8 z m -10.2,21.2 c 3.5,-3.6 6.9,-7 10.2,-10.5 1.5,-1.7 3,-3.4 4.2,-5.4 1.1,-1.8 2.6,-2.5 4.6,-2.8 0.8,3.8 3.3,5.6 7.2,5.2 3.3,-0.4 6.4,-1.6 8.8,-3.9 2.6,-2.5 5.4,-2.9 8.5,-1.2 0.7,0.4 1.5,0.6 2.2,0.8 1.5,0.5 3,0.5 4.2,-1 4.1,6.8 9.1,12.7 15.4,17.9 -0.9,0.3 -1.6,0.6 -2.4,0.7 -4.1,0.5 -8,-0.2 -11.4,-2.7 -0.5,-0.4 -0.9,-1 -1.4,-1.5 -0.4,-0.3 -0.9,-0.7 -1.3,-0.7 -0.4,0.1 -1,0.6 -1.1,1 -0.4,1.1 -0.5,2.3 -0.8,3.5 -0.6,2.9 -2,3.7 -4.7,2.4 -1.5,-0.8 -2.9,-1.9 -4.3,-2.8 -1.2,-0.7 -2.4,-1.6 -3.8,-2 -1.9,-0.6 -3.6,0.2 -5.1,1.4 -1.5,1.3 -2.9,2.8 -4.5,3.9 -1.3,0.9 -2.8,1.7 -4.4,2.1 -2,0.5 -3.2,-0.8 -2.9,-2.9 0.1,-0.5 0.3,-1 0.3,-1.4 -0.1,-0.7 -0.2,-1.6 -0.6,-1.9 -0.4,-0.3 -1.4,-0.1 -2,0.3 -4.6,3 -9.7,3.1 -14.9,1.5 z m 51.4,15.5 c -0.5,-0.7 -1.2,-1.4 -2.1,-0.8 -0.9,0.5 -0.7,1.2 -0.3,2.1 0.3,0.8 0.4,1.6 0.4,2.5 0,3.1 -1.9,4.5 -4.8,3.3 -3,-1.2 -6,-2.6 -9,-4 -1.3,-0.6 -2.3,-0.4 -3.5,0.2 -2.7,1.4 -5.4,2.9 -8.3,3.8 -5.2,1.7 -10.4,0.9 -15.5,-0.4 -3.8,-1 -7.5,-2.3 -11.5,-3.6 2.9,-2.3 5.4,-4.1 7.7,-6.3 2.6,-2.4 4.8,-5.1 7.2,-7.6 0.5,-0.5 1.1,-0.8 1.8,-1.3 2.3,4.6 6,6 10.2,3.8 2.4,-1.3 4.4,-3.1 6.5,-4.9 2.4,-2.1 3.2,-2.3 5.7,-0.1 2,1.7 4.1,3.2 6.6,3.9 3.6,1 6.3,-0.4 7.8,-3.9 0.1,-0.4 0.3,-0.7 0.3,-0.9 2.3,0.8 4.5,1.5 6.8,2.3 0.2,0.1 0.4,0.3 0.5,0.5 2.9,4.9 6.6,9.3 10.6,13.4 -7.3,3.8 -12.4,4.1 -17.1,-2 z"
   id="path15" />
		<path
   class="st3"
   d="m 88.2,128.7 c 0.2,0.3 0.7,0.7 0.8,1.3 0.2,0.8 -1.1,2 -1.9,1.7 -0.5,-0.1 -1.1,-0.7 -1.3,-1.3 -0.2,-0.7 1,-1.7 2.4,-1.7 z"
   id="path17" />
		<path
   class="st3"
   d="m 76.3,112.2 c -0.3,-0.2 -0.9,-0.6 -0.9,-0.8 0.1,-0.5 0.4,-1.1 0.8,-1.3 1.1,-0.6 2.5,-0.8 3.5,-1.5 2,-1.3 4,-2.7 6,-4.1 0.4,-0.3 0.7,-0.7 1.1,-0.8 0.4,-0.1 1,-0.1 1.2,0.2 0.2,0.2 0.3,1 0.1,1.2 -3.3,3.2 -7,5.8 -11.8,7.1 z"
   id="path19" />
	</g>
	<g
   id="g49">
		<path
   class="st3"
   d="m 24.5,88.3 c 1.2,-9.9 4.2,-18.6 9,-26.7 3.8,-6.3 8.4,-11.9 13.9,-16.8 0.7,-0.6 1.7,-1.9 2.7,-0.7 0.9,1.2 -0.6,1.7 -1.3,2.3 -12.4,11.1 -20,24.8 -22.1,41.5 -0.1,0.8 -0.2,1.8 -1.3,1.6 -0.4,0 -0.7,-1 -0.9,-1.2 z"
   id="path23" />
		<path
   class="st3"
   d="m 109.9,26.4 c 13.8,1.1 26,5.2 37,12.8 1,0.7 1.9,1.3 2.8,2.1 0.7,0.6 2.1,1 1.1,2.2 -0.9,1.2 -1.7,-0.1 -2.4,-0.6 -3.7,-2.2 -7.2,-4.7 -11,-6.7 -8.3,-4.4 -17.2,-6.7 -26.5,-7.5 -0.2,0 -0.4,0 -0.6,0 -0.8,-0.1 -1.9,-0.1 -1.6,-1.2 0.2,-0.6 1,-1 1.2,-1.1 z"
   id="path25" />
		<path
   class="st3"
   d="m 181.9,119.1 c -1.1,3.6 -2,7 -3.3,10.4 -3,8 -7.1,15.4 -12.7,21.8 -0.4,0.5 -0.8,1 -1.3,1.3 -0.5,0.3 -1.2,0.2 -1.7,0.3 0,-0.6 -0.1,-1.3 0.2,-1.7 1.6,-2.1 3.4,-4.1 5,-6.2 5.4,-7.5 9.2,-15.7 11.3,-24.8 0.1,-0.4 0.1,-1 0.3,-1.3 0.3,-0.4 0.8,-0.9 1.2,-0.9 0.3,0 0.6,0.6 1,1.1 z"
   id="path27" />
		<path
   class="st3"
   d="m 27.8,109.3 c 0.4,1 0.7,1.6 0.8,2.2 0.9,4.3 1.4,8.7 2.6,12.9 2,7.1 5.3,13.7 9.6,19.7 0.5,0.7 1.6,1.6 0.4,2.4 -1.2,0.8 -1.7,-0.4 -2.2,-1.2 -6.8,-10 -11.2,-20.9 -12.3,-33.1 0,-0.5 -0.1,-1 0,-1.5 0.1,-0.4 0.5,-0.7 1.1,-1.4 z"
   id="path29" />
		<path
   class="st3"
   d="m 177.9,77 c -0.2,0.2 -0.4,0.7 -0.6,0.8 -0.4,0.1 -0.9,-0.1 -1.2,-0.4 -0.4,-0.4 -0.5,-1 -0.7,-1.5 -2,-5.6 -4.6,-11 -8.2,-15.9 -0.3,-0.4 -0.4,-1.5 -0.2,-1.8 0.7,-0.7 1.4,0 1.8,0.6 4,5.3 6.5,11.3 8.8,17.4 0.2,0.2 0.2,0.4 0.3,0.8 z"
   id="path31" />
		<path
   class="st3"
   d="m 51.7,136.5 c 0,1.3 -1,2.3 -2.3,2.4 -1.2,0 -2.3,-1 -2.3,-2.2 0,-1.2 1.1,-2.3 2.3,-2.4 1.3,0 2.3,0.9 2.3,2.2 z"
   id="path33" />
		<path
   class="st3"
   d="m 51.1,63.9 c -0.7,0.4 -1.3,1 -2,1.1 -1,0.1 -1.6,-0.6 -1.6,-1.6 0,-1.1 0.7,-1.8 1.8,-1.6 0.7,0.1 1.2,0.9 1.8,1.4 0,0.2 0,0.4 0,0.7 z"
   id="path35" />
		<path
   class="st3"
   d="m 35.5,83.5 c 0.5,0.6 1.2,1.2 1.3,1.8 0.2,1.1 -0.6,1.7 -1.7,1.7 -1,0 -1.8,-0.6 -1.6,-1.6 0.1,-0.7 0.8,-1.3 1.2,-1.9 0.4,0 0.6,0 0.8,0 z"
   id="path37" />
		<path
   class="st3"
   d="m 126.3,78.2 c -0.5,-0.6 -1.2,-1.2 -1.3,-1.9 -0.2,-1 0.5,-1.7 1.5,-1.7 1.1,0 1.9,0.6 1.7,1.7 -0.1,0.7 -0.8,1.3 -1.2,1.9 -0.2,0 -0.4,0 -0.7,0 z"
   id="path39" />
		<path
   class="st3"
   d="m 121,44.2 c -0.4,-0.6 -1.1,-1.2 -1.2,-1.9 -0.1,-1 0.7,-1.6 1.7,-1.6 1,0 1.7,0.7 1.5,1.7 -0.1,0.7 -0.8,1.2 -1.3,1.9 -0.2,0 -0.5,-0.1 -0.7,-0.1 z"
   id="path41" />
		<path
   class="st3"
   d="m 167.4,78.6 c 0.4,0.6 1.2,1.1 1.2,1.7 0.2,1.1 -0.6,1.7 -1.7,1.7 -0.9,0 -1.7,-0.6 -1.5,-1.5 0.2,-0.7 0.8,-1.3 1.2,-1.9 0.4,0 0.6,0 0.8,0 z"
   id="path43" />
		<path
   class="st3"
   d="m 79,60.4 c 0.6,-0.4 1.2,-1.1 1.9,-1.2 1,-0.2 1.6,0.5 1.6,1.6 0,1 -0.7,1.7 -1.6,1.6 C 80.2,62.3 79.7,61.6 79.1,61.2 79,60.9 79,60.6 79,60.4 Z"
   id="path45" />
		<path
   class="st3"
   d="m 152.6,58.6 c 0.4,0.6 1.1,1.1 1.2,1.7 0.2,1 -0.5,1.8 -1.5,1.6 -0.6,-0.1 -1.5,-0.9 -1.5,-1.4 0,-0.6 0.7,-1.3 1.2,-1.9 0.1,0 0.3,0 0.6,0 z"
   id="path47" />
	</g>
	<g
   id="g77">
		<path
   class="st3"
   d="m 43.5,198.4 c -2.3,2 -4.5,3 -6.4,3 -1.6,0 -3,-0.6 -4.2,-1.8 -1.2,-1.2 -1.9,-2.8 -1.9,-4.9 0,-1.5 0.3,-2.8 1,-3.9 0.7,-1.1 1.6,-2.1 2.7,-2.9 1.2,-0.8 2.6,-1.2 4.3,-1.2 1.5,0 2.8,0.2 4.1,0.7 v 3.3 h -0.8 c -0.1,-1 -0.6,-1.9 -1.4,-2.4 -0.8,-0.6 -1.8,-0.9 -2.9,-0.9 -1.6,0 -2.8,0.6 -3.8,1.8 -0.9,1.2 -1.4,2.6 -1.4,4.3 0,1.8 0.5,3.4 1.6,4.6 1,1.2 2.4,1.8 4,1.8 1.6,0 3.3,-0.7 5,-2.1 v 0.6 z"
   id="path51" />
		<path
   class="st3"
   d="m 48.4,185.5 v 0.5 c -0.3,0.1 -0.5,0.4 -0.5,0.8 v 7.6 c 0.9,-1.2 1.7,-2.1 2.4,-2.7 0.8,-0.6 1.5,-0.9 2.2,-0.9 0.6,0 1,0.2 1.3,0.6 0.3,0.4 0.5,1 0.5,1.8 v 5.8 c 0,0.6 0.1,1.1 0.4,1.3 0.3,0.2 0.7,0.4 1.3,0.4 v 0.5 h -3.9 v -0.5 c 0.3,0 0.5,-0.2 0.5,-0.6 v -6.6 c 0,-0.5 -0.1,-0.8 -0.3,-1.1 -0.2,-0.3 -0.5,-0.4 -0.9,-0.4 -0.9,0 -1.8,0.7 -2.5,2 -0.7,1.3 -1.2,2.8 -1.2,4.4 0,1.5 0.4,2.2 1.3,2.2 h 0.4 v 0.5 h -5 v -0.5 c 0.6,0 1,-0.1 1.3,-0.4 0.3,-0.2 0.4,-0.7 0.4,-1.3 V 188 c 0,-0.4 -0.2,-0.7 -0.7,-0.7 -0.3,0 -0.6,0.1 -0.9,0.2 V 187 Z"
   id="path53" />
		<path
   class="st3"
   d="m 57.1,191.8 2.9,-1.2 h 0.5 v 3.6 c 0.8,-1.3 1.4,-2.2 2,-2.8 0.6,-0.5 1.2,-0.8 1.8,-0.8 0.2,0 0.5,0.1 0.9,0.2 v 3.4 h -0.8 c 0,-1.3 -0.4,-2 -1.2,-2 -0.8,0 -1.4,0.6 -2,1.9 -0.6,1.2 -0.9,2.6 -0.9,4.2 0,0.9 0.2,1.5 0.5,1.8 0.3,0.3 1,0.4 2,0.4 v 0.5 h -5.7 v -0.5 c 0.6,0 1,-0.1 1.3,-0.4 0.3,-0.3 0.4,-0.7 0.4,-1.3 v -5.7 c 0,-0.6 -0.2,-1 -0.7,-1 -0.2,0 -0.5,0.1 -1,0.2 z"
   id="path55" />
		<path
   class="st3"
   d="m 66.1,200.5 c 0.6,0 1,-0.1 1.3,-0.4 0.3,-0.2 0.4,-0.7 0.4,-1.4 v -6 c 0,-0.5 -0.3,-0.7 -0.8,-0.7 -0.2,0 -0.4,0 -0.6,0.1 -0.1,0.1 -0.2,0.1 -0.3,0.1 v -0.6 l 2.8,-1.1 h 0.5 v 8.2 c 0,0.7 0.1,1.1 0.4,1.3 0.3,0.2 0.7,0.4 1.3,0.4 v 0.5 H 66 v -0.4 z m 2.5,-14.4 c 0.3,0 0.6,0.1 0.8,0.3 0.2,0.2 0.3,0.5 0.3,0.7 0,0.2 -0.1,0.5 -0.3,0.7 -0.2,0.2 -0.5,0.3 -0.7,0.3 -0.3,0 -0.5,-0.1 -0.7,-0.3 -0.2,-0.2 -0.3,-0.4 -0.3,-0.7 0,-0.3 0.1,-0.6 0.3,-0.8 0.2,-0.1 0.4,-0.2 0.6,-0.2 z"
   id="path57" />
		<path
   class="st3"
   d="m 73.3,197.7 c 0.1,1 0.3,1.7 0.8,2.2 0.5,0.5 1.1,0.8 1.8,0.8 0.6,0 1,-0.2 1.4,-0.5 0.4,-0.3 0.5,-0.8 0.5,-1.3 0,-0.5 -0.1,-0.9 -0.4,-1.2 -0.3,-0.3 -0.8,-0.7 -1.6,-1.2 -0.6,-0.4 -1.1,-0.7 -1.6,-1 -0.5,-0.3 -0.8,-0.6 -1,-1 -0.2,-0.3 -0.3,-0.7 -0.3,-1 0,-0.7 0.3,-1.3 1,-1.9 0.7,-0.6 1.5,-0.8 2.6,-0.8 0.7,0 1.4,0.1 2.2,0.4 v 2.9 h -0.8 c 0,-0.8 -0.2,-1.5 -0.7,-2 -0.4,-0.5 -1,-0.7 -1.5,-0.7 -0.4,0 -0.7,0.1 -1,0.4 -0.2,0.3 -0.3,0.6 -0.3,0.9 0,0.4 0.1,0.7 0.4,1 0.3,0.3 0.8,0.7 1.6,1.2 1.3,0.8 2.2,1.4 2.5,1.8 0.3,0.4 0.5,0.8 0.5,1.4 0,0.9 -0.4,1.7 -1.2,2.4 -0.8,0.7 -1.7,1 -2.8,1 -0.8,0 -1.7,-0.2 -2.7,-0.7 v -3.1 z"
   id="path59" />
		<path
   class="st3"
   d="m 84.2,187.5 v 0.6 c -0.5,0.1 -0.7,0.6 -0.7,1.6 0,0.6 0.1,1.1 0.2,1.3 0.1,0.2 0.3,0.5 0.6,0.6 0.3,0.2 0.6,0.2 1.1,0.2 h 0.9 v 0.5 h -2.7 v 7.1 c 0,0.2 0,0.4 0.1,0.5 0.1,0.1 0.2,0.2 0.4,0.2 0.4,0 0.9,-0.3 1.6,-0.9 0.1,-0.1 0.1,-0.1 0.2,-0.1 v 0.6 c -1.3,1.1 -2.3,1.7 -3,1.7 -0.3,0 -0.6,-0.1 -0.8,-0.4 -0.2,-0.3 -0.3,-0.7 -0.3,-1.2 v -7.5 h -1.7 v -0.5 c 0.6,0 1.1,-0.1 1.4,-0.4 0.3,-0.3 0.4,-0.7 0.4,-1.4 v -1.7 z"
   id="path61" />
		<path
   class="st3"
   d="m 96.4,193.9 c 1.1,-1.4 2,-2.3 2.6,-2.7 0.6,-0.4 1.1,-0.6 1.7,-0.6 0.5,0 1,0.2 1.3,0.5 0.3,0.4 0.5,0.8 0.5,1.4 v 6.2 c 0,0.7 0.1,1.1 0.4,1.3 0.3,0.2 0.7,0.4 1.3,0.4 v 0.5 h -3.8 v -0.5 c 0.3,0 0.5,-0.2 0.5,-0.5 v -6.3 c 0,-0.6 -0.1,-1 -0.3,-1.3 -0.2,-0.3 -0.5,-0.4 -0.9,-0.4 -0.9,0 -1.6,0.6 -2.3,1.9 -0.7,1.3 -1,2.7 -1,4.3 0,0.9 0.1,1.6 0.4,1.9 0.3,0.3 0.7,0.5 1.4,0.5 v 0.5 h -3.8 v -0.5 c 0.3,0 0.5,-0.2 0.5,-0.4 v -6.8 c 0,-0.4 -0.1,-0.8 -0.3,-1 -0.2,-0.3 -0.5,-0.4 -0.8,-0.4 -0.9,0 -1.7,0.6 -2.4,1.9 -0.7,1.2 -1,2.7 -1,4.3 0,0.9 0.1,1.5 0.4,1.9 0.3,0.3 0.7,0.5 1.4,0.5 v 0.5 h -5 v -0.5 c 0.6,0 1,-0.1 1.3,-0.4 0.3,-0.2 0.4,-0.7 0.4,-1.3 V 193 c 0,-0.6 -0.2,-0.9 -0.7,-0.9 -0.2,0 -0.6,0.1 -0.9,0.2 v -0.6 l 2.8,-1.1 h 0.5 v 3.4 c 1.1,-1.5 2,-2.4 2.5,-2.8 0.6,-0.4 1.2,-0.6 1.7,-0.6 0.6,0 1.1,0.2 1.3,0.6 0.3,0.4 0.4,1.1 0.4,1.9 -0.1,0.3 -0.1,0.6 -0.1,0.8 z"
   id="path63" />
		<path
   class="st3"
   d="m 106.3,192.3 c 1.7,-1.1 3.3,-1.7 4.8,-1.7 0.7,0 1.2,0.2 1.5,0.5 0.3,0.3 0.5,0.8 0.5,1.6 v 6.9 c 0,0.3 0.1,0.5 0.4,0.5 0.3,0 0.8,-0.3 1.5,-1 v 0.7 c -1.1,1.1 -2,1.6 -2.7,1.6 -0.6,0 -0.9,-0.4 -0.9,-1.1 v -1.6 c -0.9,0.9 -1.7,1.6 -2.3,2.1 -0.6,0.5 -1.2,0.6 -1.8,0.6 -0.6,0 -1,-0.2 -1.4,-0.6 -0.4,-0.4 -0.6,-1 -0.6,-1.6 0,-1.6 2,-3.3 6.1,-5.2 v -1.3 c 0,-0.4 -0.1,-0.7 -0.4,-1 -0.2,-0.3 -0.6,-0.4 -1,-0.4 -0.7,0 -1.4,0.4 -1.9,1.1 -0.6,0.7 -0.9,1.6 -1,2.6 h -0.7 v -2.7 z m 5.1,2.6 c -1.4,0.3 -2.5,0.8 -3.3,1.4 -0.8,0.6 -1.3,1.4 -1.3,2.1 0,0.5 0.1,0.8 0.4,1.1 0.3,0.3 0.7,0.4 1.1,0.4 0.8,0 1.6,-0.4 2.1,-1.3 0.7,-0.9 1,-2.1 1,-3.7 z"
   id="path65" />
		<path
   class="st3"
   d="m 116.8,197.7 c 0.1,1 0.3,1.7 0.8,2.2 0.5,0.5 1.1,0.8 1.8,0.8 0.6,0 1,-0.2 1.4,-0.5 0.4,-0.3 0.5,-0.8 0.5,-1.3 0,-0.5 -0.1,-0.9 -0.4,-1.2 -0.3,-0.3 -0.8,-0.7 -1.6,-1.2 -0.6,-0.4 -1.1,-0.7 -1.6,-1 -0.5,-0.3 -0.8,-0.6 -1,-1 -0.2,-0.3 -0.3,-0.7 -0.3,-1 0,-0.7 0.3,-1.3 1,-1.9 0.7,-0.6 1.5,-0.8 2.6,-0.8 0.7,0 1.4,0.1 2.2,0.4 v 2.9 h -0.8 c 0,-0.8 -0.2,-1.5 -0.7,-2 -0.4,-0.5 -1,-0.7 -1.5,-0.7 -0.4,0 -0.7,0.1 -1,0.4 -0.2,0.3 -0.3,0.6 -0.3,0.9 0,0.4 0.1,0.7 0.4,1 0.3,0.3 0.8,0.7 1.6,1.2 1.3,0.8 2.2,1.4 2.5,1.8 0.3,0.4 0.5,0.8 0.5,1.4 0,0.9 -0.4,1.7 -1.2,2.4 -0.8,0.7 -1.7,1 -2.8,1 -0.8,0 -1.7,-0.2 -2.7,-0.7 v -3.1 z"
   id="path67" />
		<path
   class="st3"
   d="m 131.4,188.3 c 0.9,-0.6 1.7,-1 2.6,-1.2 0.8,-0.3 1.6,-0.4 2.4,-0.4 1,0 1.8,0.3 2.5,0.8 0.7,0.5 1,1.2 1,2 0,0.7 -0.2,1.5 -0.7,2.2 -0.4,0.7 -1.4,1.8 -2.8,3.1 l -4.7,4.6 h 6.2 c 0.6,0 1.1,-0.1 1.4,-0.4 0.3,-0.3 0.5,-0.7 0.6,-1.3 h 0.5 l -0.8,3.9 h -0.5 v -0.1 c 0,-0.3 -0.1,-0.4 -0.4,-0.4 h -8.6 v -0.5 l 3.2,-3.9 c 0.5,-0.6 1.2,-1.5 2.2,-2.8 0.9,-1.3 1.6,-2.2 1.8,-2.9 0.2,-0.7 0.4,-1.2 0.4,-1.7 0,-0.5 -0.2,-1 -0.5,-1.4 -0.4,-0.4 -0.8,-0.6 -1.4,-0.6 -0.9,0 -1.7,0.4 -2.4,1.3 -0.7,0.9 -1.1,1.9 -1.2,3.1 h -0.7 v -3.4 z"
   id="path69" />
		<path
   class="st3"
   d="m 148.3,186.6 c 1.3,0 2.5,0.6 3.4,1.7 0.9,1.1 1.4,2.7 1.4,4.6 0,2.4 -0.7,4.4 -2,6.1 -1.3,1.7 -2.7,2.5 -4.2,2.5 -0.8,0 -1.6,-0.3 -2.3,-0.8 -0.8,-0.5 -1.3,-1.2 -1.7,-2.1 -0.4,-0.9 -0.6,-2 -0.6,-3.3 0,-2.4 0.6,-4.5 1.9,-6.1 1.3,-1.6 2.7,-2.6 4.1,-2.6 z m -1,1.2 c -1.1,0 -2,0.5 -2.5,1.6 -0.6,1.1 -0.9,2.4 -0.9,4.1 0,1.8 0.4,3.4 1.3,4.7 0.9,1.3 1.9,1.9 3,1.9 1,0 1.8,-0.5 2.4,-1.4 0.6,-1 0.9,-2.3 0.9,-4.1 0,-1.3 -0.2,-2.4 -0.6,-3.5 -0.4,-1.1 -0.9,-1.9 -1.6,-2.4 -0.7,-0.6 -1.4,-0.9 -2,-0.9 z"
   id="path71" />
		<path
   class="st3"
   d="m 156.4,188.3 c 0.9,-0.6 1.7,-1 2.6,-1.2 0.8,-0.3 1.6,-0.4 2.4,-0.4 1,0 1.8,0.3 2.5,0.8 0.7,0.5 1,1.2 1,2 0,0.7 -0.2,1.5 -0.7,2.2 -0.4,0.7 -1.4,1.8 -2.8,3.1 l -4.7,4.6 h 6.2 c 0.6,0 1.1,-0.1 1.4,-0.4 0.3,-0.3 0.5,-0.7 0.6,-1.3 h 0.5 l -0.8,3.9 H 164 v -0.1 c 0,-0.3 -0.1,-0.4 -0.4,-0.4 H 155 v -0.5 l 3.2,-3.9 c 0.5,-0.6 1.2,-1.5 2.2,-2.8 0.9,-1.3 1.6,-2.2 1.8,-2.9 0.2,-0.7 0.4,-1.2 0.4,-1.7 0,-0.5 -0.2,-1 -0.5,-1.4 -0.4,-0.4 -0.8,-0.6 -1.4,-0.6 -0.9,0 -1.7,0.4 -2.4,1.3 -0.7,0.9 -1.1,1.9 -1.2,3.1 h -0.7 z"
   id="path73" />
		<path
   class="st3"
   d="m 174.7,186.5 h 0.6 v 9.4 h 2.2 v 1.1 h -2.2 v 2.1 c 0,0.9 0.5,1.4 1.4,1.4 h 0.3 v 0.5 h -5.5 v -0.5 h 0.5 c 1,0 1.6,-0.5 1.6,-1.4 V 197 h -6.4 v -0.5 l 4.3,-5.5 c 1.4,-1.7 2.5,-3.2 3.2,-4.5 z m -1.2,3.6 c -1,1 -1.9,2 -2.8,3 l -2.2,2.8 h 5 z"
   id="path75" />
	</g>
	<g
   id="white_outline_silkscreen_00000004512915937081773770000004099289359413479069_">
		<path
   class="st3"
   d="M 187,45.1 C 177.7,32.2 166.3,22.1 153.1,15.1 140.3,8.3 125.7,4.4 109.8,3.4 107.5,3.3 105.3,3.2 103.1,3.2 79.3,3.2 57.8,10.8 39.2,25.8 28.3,34.6 19.7,45 13.8,56.6 7.9,68.4 4.6,81.4 3.9,95.4 c -1,23.2 5.4,44.1 19.2,62.4 -1.2,2.2 -1.8,4.7 -1.8,7.4 0,1.3 0,2.4 0,3.5 0,1.1 0,2.1 0,3.2 -4.6,4.3 -7.4,10 -7.9,16.5 -0.4,4.1 -0.4,8 -0.3,11.7 0,1.3 0,2.6 0,3.9 0,2 -0.1,7.2 4.1,11.4 4.1,4.2 9.4,4.2 11.4,4.2 h 130.2 3.9 6.1 c 3.9,0 7.8,0 11.7,0 5.4,0 8.8,-2.3 10.7,-4.2 2.6,-2.6 4,-6.2 4,-10.1 0,-1.1 0,-2.2 0,-3.3 0,-4.1 0,-8.3 -0.3,-12.6 -0.6,-6.8 -3.3,-12.7 -7.8,-17.3 0,-1.1 0,-2.1 0,-3.2 0,-1.3 0,-2.7 0,-4.2 0,-2.4 -0.6,-4.7 -1.7,-6.7 9.3,-12.4 15.3,-26.6 17.9,-42.3 4.2,-26 -1.2,-49.7 -16.3,-70.6 z m 10.3,69.5 c -2.7,16.2 -9.2,30.7 -19.5,43.1 1.9,1.9 3.2,4.4 3.2,6.9 0,1.5 0,2.9 0,4.2 0,1.9 0,3.8 0,5.9 4.6,3.7 7.3,8.9 7.8,15.1 0.3,4.1 0.3,8.2 0.3,12.1 0,1.1 0,2.2 0,3.4 0,2.9 -1.2,4.8 -2.3,5.8 -1.6,1.6 -3.7,2.4 -6.4,2.4 -3.9,0 -7.8,0 -11.7,0 h -6.2 -3.9 -130.2 c -1.6,0 -4.8,0 -7.2,-2.4 -2.4,-2.4 -2.3,-5.6 -2.3,-7.1 0,-1.3 0,-2.6 0,-4 0,-3.6 0,-7.4 0.3,-11.2 0.5,-5.8 3.3,-10.8 8,-14.2 0,-2.2 0,-4 0,-6 0,-1.1 0,-2.2 0,-3.5 0,-2.9 1.3,-5.5 3.4,-7.5 C 15.8,139.6 8.8,118.8 9.8,95.6 11,69.2 22.1,47.3 42.8,30.5 60.4,16.4 80.6,9.3 103.1,9.3 c 2.1,0 4.2,0.1 6.4,0.2 30.9,1.8 55.3,15 72.7,39.2 14,19.5 19.1,41.7 15.1,65.9 z"
   id="path79" />
	</g>
</g></g><g
   style="display:inline"
   inkscape:groupmode="layer"
   id="layer2"
   inkscape:label="Edge.Cuts"><g
     id="Cut">
	<g
   id="outline_margin_00000158020533684300101190000018290530502663507384_">
		<path
   id="cut_line"
   class="st2"
   d="M 168.8,220.1 H 28.5 c -2.1,0 -7.5,0 -11.8,-4.3 -4.3,-4.3 -4.2,-9.7 -4.2,-11.8 v -3.9 c 0,-3.8 0,-7.7 0.4,-11.8 0.6,-6.5 3.3,-12.3 7.9,-16.7 v -6.5 c 0,-2.5 0.6,-5 1.8,-7.3 C 8.9,139.5 2.4,118.5 3.4,95.4 4,81.3 7.4,68.3 13.3,56.5 19.2,44.8 27.8,34.4 38.8,25.5 59.2,9 83.2,1.4 109.8,3 c 16,1 30.7,4.9 43.5,11.7 13.3,7 24.7,17.2 34.1,30.1 15.1,21 20.6,44.8 16.3,70.9 -2.6,15.7 -8.6,29.9 -17.8,42.3 1,2.1 1.6,4.4 1.6,6.7 v 3.9 0.3 3 c 4.6,4.6 7.3,10.7 7.8,17.4 0.4,4.4 0.3,8.6 0.3,12.7 v 3.3 c 0,4 -1.5,7.7 -4.2,10.4 -2,2 -5.5,4.3 -11,4.3 -3.8,0.1 -7.7,0.1 -11.6,0.1 z"
   style="fill:none;fill-opacity:1;stroke:#000000;stroke-width:0.47622047;stroke-miterlimit:4;stroke-dasharray:none;stroke-opacity:1"
   sodipodi:nodetypes="sssssccscccccccccsccccssscs" />
	</g>
</g></g><g
   inkscape:groupmode="layer"
   id="layer3"
   inkscape:label="F.Cu"><g
     id="Copper">
	<g
   id="g9">
		<path
   class="st1"
   d="M 191.4,113.7 C 195.1,91.3 190.5,70.6 177.3,52.2 160.6,29 137.3,17.2 109.1,15.5 85.9,14.1 64.9,20.6 46.7,35.3 27.4,50.8 17,71.3 15.9,95.9 c -1.1,24.4 7.3,45.5 24.1,63.2 0.4,0.4 0.7,0.8 1.2,1.5 -2,0 -1.5,0 -3.1,0 -2.4,0 -4.9,2.1 -4.9,4.5 0,4.5 0,7.2 0,11.7 0,0.5 -0.3,1.3 -0.8,1.6 -4.3,2.4 -6.8,6.2 -7.2,11 -0.4,4.9 -0.3,9.8 -0.3,14.7 0,3 0.5,3.4 3.5,3.4 43.4,0 86.8,0 130.2,0 7.3,0 14.5,0 21.8,0 1.8,0 2.7,-0.6 2.7,-2.2 0,-5 0.1,-10 -0.3,-15 -0.4,-5 -2.7,-9.2 -7.1,-11.9 -0.4,-0.3 -0.7,-1 -0.7,-1.6 -0.1,-4.5 0,-7.6 0,-12.1 0,-1.9 -2.4,-4 -4.3,-4 -1.7,0 -1.5,0 -3.6,0 0.4,-0.5 0.6,-0.7 0.8,-0.9 12.7,-12.9 20.6,-28.3 23.5,-46.1 z m -14.9,69.5 c 2,2.3 3.2,5 3.3,8.1 0.2,4.3 0,8.6 0,13 -50.5,0 -100.9,0 -151.3,0 0,-5.1 -0.2,-10.1 0.1,-15 0.1,-1.8 1.2,-3.7 2.3,-5.3 1.4,-2.2 3.4,-3.4 6.3,-3.4 41.1,0.1 82.2,0.1 123.3,0.1 3.5,0 7,0.2 10.4,0 2.5,-0.3 4.1,0.8 5.6,2.5 z m -5.1,-6 c -44.9,0 -89.7,0 -134.6,0 0,-2.1 0,-4.1 0,-6.2 44.9,0 89.7,0 134.6,0 0,2.2 0,4.2 0,6.2 z m -0.1,-13.1 c 0,1.3 0,2.7 0,4.1 -44.8,0 -89.6,0 -134.5,0 0,-1.4 0,-2.7 0,-4.1 44.9,0 89.6,0 134.5,0 z M 46.1,157.8 c 1.8,-2.6 11.2,-7.9 19.4,-10.4 8.2,-2.5 28.9,-3.7 38.6,-3.6 10.4,0.2 22.1,1.5 27.9,2.9 5.8,1.3 16.9,4.2 23.5,7.6 1.9,1.1 3.7,2.6 5.4,4 0.6,0.5 0.9,1.4 1.6,2.4 -4.5,0 -8.5,0 -12.5,0 -34.1,0 -68.2,0 -102.3,0 -0.7,0 -1.6,-0.5 -2.1,-1.1 -0.5,-0.6 0.3,-1.5 0.5,-1.8 z M 165.9,156 c -0.5,0.5 -1,0.9 -1.5,1.4 -6.8,-3.9 -15.9,-8.3 -27.2,-11.3 -7.2,-1.9 -14.6,-2.9 -19.2,-3.3 -4.6,-0.4 -22.9,-0.6 -22.9,-0.6 -8.9,0.1 -16.2,0.8 -21.7,1.5 -5.8,0.8 -11.1,2 -17.4,4.9 -5.7,2.7 -9.9,5.9 -12.6,8.3 -0.8,-0.8 -2.1,-2 -3.6,-3.7 C 37,150.2 26.1,137.6 21.7,117.5 20.4,111.4 19.8,105 20,98.4 20.9,69.8 33.5,47.4 58.1,32.3 74.9,22 93.3,17.8 112.9,19.8 c 22.7,2.3 42.1,11.6 56.8,29.1 17,20.2 22.6,43.6 16.8,69.4 -3.4,14.3 -10.2,27 -20.6,37.7 z"
   id="path7" />
	</g>
</g></g><g
   inkscape:label="F.Mask"
   id="g181"
   inkscape:groupmode="layer"><g
     id="g179">
	<g
   id="g177">
		<path
   id="path175"
   d="M 191.4,113.7 C 195.1,91.3 190.5,70.6 177.3,52.2 160.6,29 137.3,17.2 109.1,15.5 85.9,14.1 64.9,20.6 46.7,35.3 27.4,50.8 17,71.3 15.9,95.9 c -1.1,24.4 7.3,45.5 24.1,63.2 0.4,0.4 0.7,0.8 1.2,1.5 -2,0 -1.5,0 -3.1,0 -2.4,0 -4.9,2.1 -4.9,4.5 0,4.5 0,7.2 0,11.7 0,0.5 -0.3,1.3 -0.8,1.6 -4.3,2.4 -6.8,6.2 -7.2,11 -0.4,4.9 -0.3,9.8 -0.3,14.7 0,3 0.5,3.4 3.5,3.4 43.4,0 86.8,0 130.2,0 7.3,0 14.5,0 21.8,0 1.8,0 2.7,-0.6 2.7,-2.2 0,-5 0.1,-10 -0.3,-15 -0.4,-5 -2.7,-9.2 -7.1,-11.9 -0.4,-0.3 -0.7,-1 -0.7,-1.6 -0.1,-4.5 0,-7.6 0,-12.1 0,-1.9 -2.4,-4 -4.3,-4 -1.7,0 -1.5,0 -3.6,0 0.4,-0.5 0.6,-0.7 0.8,-0.9 12.7,-12.9 20.6,-28.3 23.5,-46.1 z m -14.9,69.5 c 2,2.3 3.2,5 3.3,8.1 0.2,4.3 0,8.6 0,13 -50.5,0 -100.9,0 -151.3,0 0,-5.1 -0.2,-10.1 0.1,-15 0.1,-1.8 1.2,-3.7 2.3,-5.3 1.4,-2.2 3.4,-3.4 6.3,-3.4 41.1,0.1 82.2,0.1 123.3,0.1 3.5,0 7,0.2 10.4,0 2.5,-0.3 4.1,0.8 5.6,2.5 z m -5.1,-6 c -44.9,0 -89.7,0 -134.6,0 0,-2.1 0,-4.1 0,-6.2 44.9,0 89.7,0 134.6,0 0,2.2 0,4.2 0,6.2 z m -0.1,-13.1 c 0,1.3 0,2.7 0,4.1 -44.8,0 -89.6,0 -134.5,0 0,-1.4 0,-2.7 0,-4.1 44.9,0 89.6,0 134.5,0 z M 46.1,157.8 c 1.8,-2.6 11.2,-7.9 19.4,-10.4 8.2,-2.5 28.9,-3.7 38.6,-3.6 10.4,0.2 22.1,1.5 27.9,2.9 5.8,1.3 16.9,4.2 23.5,7.6 1.9,1.1 3.7,2.6 5.4,4 0.6,0.5 0.9,1.4 1.6,2.4 -4.5,0 -8.5,0 -12.5,0 -34.1,0 -68.2,0 -102.3,0 -0.7,0 -1.6,-0.5 -2.1,-1.1 -0.5,-0.6 0.3,-1.5 0.5,-1.8 z M 165.9,156 c -0.5,0.5 -1,0.9 -1.5,1.4 -6.8,-3.9 -15.9,-8.3 -27.2,-11.3 -7.2,-1.9 -14.6,-2.9 -19.2,-3.3 -4.6,-0.4 -22.9,-0.6 -22.9,-0.6 -8.9,0.1 -16.2,0.8 -21.7,1.5 -5.8,0.8 -11.1,2 -17.4,4.9 -5.7,2.7 -9.9,5.9 -12.6,8.3 -0.8,-0.8 -2.1,-2 -3.6,-3.7 C 37,150.2 26.1,137.6 21.7,117.5 20.4,111.4 19.8,105 20,98.4 20.9,69.8 33.5,47.4 58.1,32.3 74.9,22 93.3,17.8 112.9,19.8 c 22.7,2.3 42.1,11.6 56.8,29.1 17,20.2 22.6,43.6 16.8,69.4 -3.4,14.3 -10.2,27 -20.6,37.7 z"
   class="st1" />
	</g>
</g></g><g
   style="display:inline"
   inkscape:groupmode="layer"
   id="layer5"
   inkscape:label="Cmnts.User"><g
     id="Leds"
     style="display:inline">
	
		<rect
   x="165.89999"
   y="100.6"
   transform="rotate(90,170.21725,102.72155)"
   class="st4"
   width="8.6000004"
   height="4.3000002"
   id="rect83" />
	
		<rect
   x="149.39999"
   y="122.7"
   transform="rotate(90,153.75485,124.87685)"
   class="st4"
   width="8.6000004"
   height="4.3000002"
   id="rect85" />
	
		<rect
   x="59.299999"
   y="74.300003"
   transform="rotate(90,63.63405,76.45885)"
   class="st4"
   width="8.6000004"
   height="4.3000002"
   id="rect87" />
	
		<rect
   x="73.199997"
   y="36"
   transform="rotate(90,77.5416,38.185)"
   class="st4"
   width="8.6000004"
   height="4.3000002"
   id="rect89" />
	
		<rect
   x="132.5"
   y="52.299999"
   transform="rotate(90,136.7994,54.4711)"
   class="st4"
   width="8.6000004"
   height="4.3000002"
   id="rect91" />
	
		<rect
   x="43.200001"
   y="109.3"
   transform="rotate(90,47.5163,111.432)"
   class="st4"
   width="8.6000004"
   height="4.3000002"
   id="rect93" />
	<g
   id="g95">
	</g>
	<g
   id="g97">
	</g>
	<g
   id="g99">
	</g>
	<g
   id="g101">
	</g>
	<g
   id="g103">
	</g>
	<g
   id="g105">
	</g>
</g></g></svg>
